<svg width="132" height="60" viewBox="0 0 132 60" xmlns="http://www.w3.org/2000/svg"><path d="M26.813 16H8.625C7.172 16 6 17.172 6 18.578v16.5c0 .89.375 1.64 1.172 2.156l10.547 6.891 10.547-6.89c.656-.516 1.172-1.266 1.172-2.157v-16.5c0-1.406-1.172-2.578-2.625-2.578zm-4.079 17.344h-8.906c-2.25 0-4.078-2.063-4.078-4.594 0-2.344 1.594-4.266 3.703-4.594.844-1.828 2.531-3.047 4.5-3.047 2.531 0 4.594 1.97 5.063 4.594 1.687.14 3.14 1.828 3.14 3.797 0 2.156-1.5 3.844-3.422 3.844zm13.219-3.422c0-2.953 1.734-5.766 4.875-6.047 1.453-.14 2.813.375 3.797 1.453 0 .14-.469.516-.563.61-.187.234-.421.468-.609.656-1.078-1.078-2.719-1.313-3.937-.375-1.266.984-1.547 2.765-1.407 4.265.094 1.266.563 2.672 1.782 3.282 1.312.703 2.859.234 3.797-.844l.562.61c.094.093.563.468.563.609-1.032 1.172-2.438 1.78-3.985 1.687-1.453-.094-2.766-.703-3.656-1.875-.89-1.078-1.219-2.578-1.219-4.031zm10.64-6.797h1.688c.328 0 .375-.047.375.281v10.125c0 .469.235.797.75.657.094.515.188 1.03.282 1.5.046.187-1.407.187-1.547.14-.516-.094-.985-.328-1.22-.844-.468-.843-.327-1.968-.327-2.906v-8.953zm4.266 8.203c0-2.39 1.594-4.594 4.125-4.594 2.532 0 4.172 2.203 4.172 4.594 0 2.39-1.64 4.547-4.172 4.547-2.53 0-4.125-2.156-4.125-4.547zm2.063 0c0 1.266.516 2.906 2.062 2.906 1.547 0 2.063-1.593 2.063-2.906 0-1.265-.516-2.906-2.063-2.906-1.547 0-2.062 1.64-2.062 2.906zm8.156-4.36h1.688c.047 0 .375-.046.375 0v4.548c0 .515-.047 1.03.047 1.547.234 1.171 1.453 1.406 2.39.75.188-.141.844-.61.844-.891v-5.906c0-.141 1.031-.047 1.219-.047.187 0 .843-.14.843.14V35.5c0 .281-.046.188-.328.188-.094 0-1.312.046-1.36 0l-.14-1.266c-.281.094-.562.562-.797.75-.375.281-.796.562-1.265.656-.797.188-1.781.094-2.438-.422-.984-.75-1.031-2.156-1.031-3.281-.047-1.734-.047-3.469-.047-5.156zm9.422 4.36c0-1.5.563-3.094 1.828-3.984 1.36-.985 2.953-.703 4.172.328a67.995 67.995 0 01-.094-3.094v-.984c0-.047-.047-.469 0-.516.047-.047.516 0 .563 0h1.125c.328 0 .375-.094.375.235V35.5c0 .328-.281.188-.563.188h-.984c-.234 0-.188-.235-.234-.47-.047-.421 0-.609-.376-.28-.515.421-1.124.796-1.78.89a3.293 3.293 0 01-3-1.078c-.798-.89-1.032-2.203-1.032-3.422zm2.11 0c0 .797.093 1.735.656 2.344.562.61 1.546.703 2.25.281.187-.094.89-.516.89-.75v-3.89c0-.235-.187-.329-.375-.422-.75-.516-1.828-.61-2.531 0-.703.609-.89 1.547-.89 2.437zm7.546-4.36h1.688c.047 0 .328-.046.375 0 .047.188.094.329.094.516a111.1 111.1 0 00.89 3.797L83.72 34c.14 0 .375-1.406.422-1.594l.234-1.031.938-3.703c.093-.281.046-.703.374-.703h.985c.14 0 .61-.094.703 0l.094.281.187.844.563 2.11.328 1.265c.14.562.281 1.125.422 1.734.047.094.14.797.234.797s.188-.844.234-.938c.235-1.359.563-2.718.891-4.078l.469-1.968c0-.094 1.734 0 1.922 0l-1.688 6.609c-.047.188-.422 2.11-.562 2.11h-1.875c-.094 0-.469.046-.516 0-.047-.047-.094-.329-.094-.376l-.89-3.609c-.094-.375-.188-.75-.235-1.125l-.187-.984c-.094-.375-.14-.797-.234-.188-.141.844-.329 1.688-.516 2.531l-.89 3.61c-.048.281-.844.093-1.079.093-.14 0-1.312.047-1.312 0-.938-2.906-1.688-5.812-2.485-8.718zm13.64 6.376c0-2.016 2.063-2.719 3.704-3l.75-.14c.188-.048.328-.048.516-.048.234-.047.187-.14.14-.328-.094-.515-.328-1.031-.844-1.219-1.03-.468-2.343.188-3.187.703l-.75-1.359c-.047-.094 1.5-.75 1.64-.797.657-.234 1.407-.375 2.11-.328 1.078.047 2.11.469 2.625 1.453.375.75.469 1.594.469 2.438v5.015h-1.547c-.281 0-.234-.703-.281-.937-.188.047-.375.234-.516.375-.281.187-.61.375-.89.516-.61.28-1.266.328-1.876.234-1.312-.281-2.062-1.36-2.062-2.578zm1.97-.188c0 .75.515 1.125 1.265 1.125.375 0 .75-.093 1.078-.328.141-.094.797-.469.797-.656v-1.969c-1.031.188-3.14.422-3.14 1.828zm7.687-6.187c.188 0 1.688-.047 1.688 0l.093.937c.047.375-.046.844.282.328.375-.562.843-1.078 1.5-1.312a1.81 1.81 0 01.984-.14c.094 0 .844.093.844.187l-.375 1.781c-1.172-.375-2.203.14-2.766 1.219-.234.468-.187.75-.187 1.265v4.032c0 .422.093.468-.375.468h-1.032c-.093 0-.609.094-.656 0-.094-.093 0-.609 0-.703V26.97zm5.906 4.36c0-1.5.563-3.095 1.829-3.985 1.359-.985 2.953-.703 4.171.328-.046-1.031-.093-2.063-.093-3.094v-.984c0-.047-.047-.469 0-.516.046-.047.515 0 .562 0h1.125c.328 0 .375-.094.375.235V35.5c0 .328-.281.188-.562.188h-.985c-.234 0-.187-.235-.234-.47-.047-.421 0-.609-.375-.28-.516.421-1.125.796-1.781.89a3.293 3.293 0 01-3-1.078c-.797-.89-1.032-2.203-1.032-3.422zm2.11 0c0 .796.094 1.733.656 2.343.563.61 1.547.703 2.25.281.188-.094.89-.516.89-.75v-3.89c0-.235-.187-.329-.374-.422-.75-.516-1.829-.61-2.532 0-.703.609-.89 1.547-.89 2.437zM120 33.39c.656.515 1.406.937 2.25.984.656.047 1.453-.14 1.547-.938.094-.843-.89-1.124-1.5-1.406-.844-.328-1.734-.656-2.297-1.36-.984-1.218-.328-3 1.031-3.608 1.5-.704 3.328-.235 4.594.703l-.89 1.172c-.094.093-.047.093-.188 0-.234-.188-.516-.329-.797-.47-.516-.234-1.172-.28-1.688-.093-.421.188-.703.656-.562 1.078.188.516.89.75 1.36.89 1.03.376 2.296.75 2.765 1.876.422.984.094 2.156-.703 2.86-.844.702-2.11.89-3.188.75-.328-.048-2.859-.892-2.578-1.22.235-.422.563-.843.844-1.218z" fill="#B9BABD" fill-rule="evenodd"/></svg>