<svg xmlns="http://www.w3.org/2000/svg" width="128" height="98" viewBox="0 0 128 98"><path fill="#FFF" d="M124.554 83.176c-1.417 0-2.554-1.157-2.554-2.588 0-1.42 1.137-2.588 2.554-2.588 1.418 0 2.564 1.167 2.564 2.588 0 1.43-1.146 2.588-2.564 2.588zm0-4.705c-1.146 0-2.07.94-2.07 2.117s.924 2.118 2.07 2.118c1.138 0 2.08-.941 2.08-2.118 0-1.176-.942-2.117-2.08-2.117zm-.382 2.531v1.064h-.606V79.11h1.156c.569 0 1.044.3 1.044.931 0 .443-.233.716-.559.847l.606 1.177h-.662l-.531-1.064h-.448zm.98-.94c0-.293-.243-.368-.476-.368h-.504v.734h.513c.224 0 .466-.094.466-.367zM20.663 97l-8.64-12.96V97h-3.84V78.208h4.44l8.16 12.264V78.208h3.84V97h-3.96zm6.376-6.384c0-3.816 3.144-6.72 7.032-6.72 3.864 0 6.96 2.832 6.96 6.648 0 3.864-3.144 6.744-7.008 6.744-3.888 0-6.984-2.808-6.984-6.672zm3.84-.048c0 1.944 1.416 3.288 3.168 3.288 1.752 0 3.144-1.344 3.144-3.288 0-1.92-1.416-3.264-3.168-3.264-1.752 0-3.144 1.344-3.144 3.264zm20.105-6.384v3.672c-.504-.096-1.032-.096-1.2-.096-1.8 0-3.048 1.248-3.048 3.624V97h-3.672V84.184h3.552v1.872h.048c.696-1.464 1.992-2.016 3.312-2.016.288 0 .744.072 1.008.144zM74.554 97l-6.792-18.792h4.2l4.872 14.28 4.896-14.28h4.128L79.042 97h-4.488zm26.92-12.768c0 4.152-2.928 6.144-6.864 6.144h-2.952V97H87.77V78.208h6.984c3.768 0 6.72 2.04 6.72 6.024zm-3.912.096c0-1.824-1.536-2.448-3.144-2.448h-2.76v4.872h2.784c1.536 0 3.12-.672 3.12-2.424zM116.227 97l-8.64-12.96V97h-3.84V78.208h4.44l8.16 12.264V78.208h3.84V97h-3.96zm-54.1 0v-1.632h-.048c-1.2 1.752-3.12 1.872-3.984 1.872-3.72 0-6.095-3.216-6.095-6.672 0-3.24 2.472-6.624 6.143-6.624.744 0 2.52.144 3.84 1.704h.048v-8.184h3.719V97h-3.623zm.001-6.432c0-1.92-1.416-3.24-3.168-3.24-1.752 0-3.168 1.32-3.168 3.24 0 1.944 1.416 3.288 3.168 3.288 1.752 0 3.168-1.344 3.168-3.288zM31.993 63.36c-4.743-6.582-7.54-14.68-7.54-23.436C24.453 17.874 42.189 0 64.067 0c21.88 0 39.615 17.875 39.615 39.924 0 8.756-2.797 16.854-7.54 23.436L77.115 32.22l-1.837 3.127 1.864 8.695-13.075-22.545L55.98 35.26l1.883 8.783-6.853-11.804L31.993 63.36z" fill-rule="evenodd"/></svg>