<svg width="132" height="60" viewBox="0 0 132 60" xmlns="http://www.w3.org/2000/svg"><g fill="none" fill-rule="evenodd"><path fill="#8A8C91" d="M49 50.27h34v1H49z"/><path d="M83 9v41.27H49V9h34zM56.546 40.98c-.518.034-.867.289-1.037.775-.08.229-.129.465-.153.705a9.962 9.962 0 00-.002 2.074c.028.257.08.51.184.75.145.331.392.544.753.622.255.055.514.062.772.025.362-.053.64-.226.79-.566.032-.071.06-.144.079-.219.099-.38.1-.766.077-1.154-.002-.03-.014-.058-.023-.095l-.847-.029c.004.08.01.139.01.198-.002.237.005.473-.01.709a1.173 1.173 0 01-.085.348c-.05.128-.158.19-.3.19-.193.002-.313-.068-.365-.25a1.903 1.903 0 01-.08-.456c-.016-.495-.027-.99-.024-1.484.002-.327.023-.653.05-.979.011-.13.054-.26.099-.385.045-.123.152-.17.283-.17a.283.283 0 01.279.177c.017.04.035.08.042.122.019.123.042.247.046.37.008.197.003.394.003.61l.847-.025c.013-.024.02-.031.02-.04.035-.36.04-.722-.054-1.076-.102-.385-.353-.623-.752-.71a2.173 2.173 0 00-.602-.038zm17.02.035a.96.96 0 00-.708.544 2.633 2.633 0 00-.18.51c-.11.459-.114.929-.137 1.4.027.372.046.746.084 1.118.028.283.096.56.233.815a.963.963 0 00.69.509c.252.051.506.053.76.02.412-.055.7-.274.862-.651.035-.083.066-.169.091-.255.087-.3.123-.607.14-.917.036-.62.036-1.238-.063-1.854a2.18 2.18 0 00-.228-.71 1.006 1.006 0 00-.695-.525 2.023 2.023 0 00-.848-.004zm-2.74-.034c-.518.027-.874.283-1.037.77a2.947 2.947 0 00-.136.564 9.374 9.374 0 00-.004 2.355c.03.227.085.448.185.656.154.323.41.518.767.586.208.04.417.046.629.03.524-.042.84-.295.977-.791.01-.038.02-.075.027-.113a3.92 3.92 0 00.049-1.054c-.002-.028-.014-.056-.021-.08-.288-.035-.747-.041-.843-.012v.09c.005.214.017.43.012.644a1.19 1.19 0 01-.095.491.326.326 0 01-.325.197c-.155-.003-.277-.06-.33-.208a1.276 1.276 0 01-.078-.325 14.693 14.693 0 01-.044-.85 14.34 14.34 0 01.048-1.766c.015-.143.06-.286.111-.421.044-.117.155-.156.28-.155.12 0 .214.05.263.159a.725.725 0 01.07.233c.016.235.02.472.028.708.002.054 0 .11 0 .18l.865-.027c.05-.358.042-.692-.025-1.023-.094-.466-.378-.744-.835-.813a2.692 2.692 0 00-.537-.025zm-4.665.038a.963.963 0 00-.697.538 2.103 2.103 0 00-.132.336 3.963 3.963 0 00-.142.903c-.036.615-.048 1.23.037 1.842.035.247.094.49.208.716.139.278.353.474.663.543.16.036.33.048.495.051a.734.734 0 00.678-.37c.012-.02.031-.036.053-.06l.2.341c.133 0 .258.008.38-.004v-2.5c-.168-.028-1.198-.021-1.291.006-.025.188-.016.587.02.692h.466c-.007.234-.007.453-.023.67-.01.114-.035.231-.076.338-.071.19-.227.268-.455.251-.168-.012-.265-.094-.31-.298a2.83 2.83 0 01-.075-.523c-.023-.765-.041-1.53.022-2.295.012-.14.052-.279.094-.413a.268.268 0 01.231-.187c.186-.028.297.027.358.203.037.109.062.225.068.34.01.2.003.402.003.626l.887-.03c.004-.086.011-.162.012-.239.004-.302-.013-.602-.121-.89a.89.89 0 00-.654-.58 2 2 0 00-.899-.007zm-13.585.033c-.033 0-.097.01-.097.01l.009 4.794h.927V44.03c.1 0 .188.004.274 0 .14-.008.282-.009.42-.032.394-.067.666-.285.806-.658.07-.188.1-.383.114-.58a2.38 2.38 0 00-.095-.944 1.025 1.025 0 00-.77-.706 1.99 1.99 0 00-.43-.056c-.386-.007-.772-.002-1.158-.002zm9.33.006H60.72l-.56 3.156h-.023l-.54-3.153h-1.199v4.795h.854v-2.967c.155.993.338 1.98.509 2.964h.801c.167-1.048.392-2.08.497-3.131v2.09c.002.347-.006.693.005 1.04h.842v-4.794zm2.18-.022h-.957l-.936 4.817h.898l.155-.867h.692l.168.867h.994l-1.013-4.817zm15.18.023h-1.177l-.562 3.16-.022-.002-.54-3.157h-1.197v4.79h.852v-2.885c.166.965.34 1.927.51 2.888h.8c.142-.887.324-1.764.434-2.596l.055-.493v2.56c0 .176 0 .352.003.527h.852c.025-.192.017-4.698-.009-4.792zm-9.946 3.738H68.3v.708c.001.116.003.232.007.347h1.013v-1.055zm4.661-3.209c.152-.001.261.063.324.199.072.155.1.32.106.488.015.45.03.902.03 1.353.001.347-.011.696-.032 1.043a1.74 1.74 0 01-.09.426c-.05.152-.172.218-.336.217-.152-.002-.267-.065-.317-.205a1.479 1.479 0 01-.087-.375c-.024-.304-.032-.609-.043-.913-.005-.125 0-.25 0-.374h-.006c.007-.33.01-.662.023-.992.006-.15.027-.3.05-.448a.977.977 0 01.069-.22c.056-.134.163-.197.31-.199zm-10.398.935l.23 1.778c-.151.01-.292.006-.45 0l.11-.887.11-.891zm-9.587-.508c.096.337.098.68-.003 1.016-.078.263-.244.346-.577.304v-1.612c.275-.077.505.032.58.292zm20.506-29.542a15.016 15.016 0 00-1.88.018 11.13 11.13 0 00-1.807.263c-.698.166-1.365.41-1.971.796-.715.456-1.25 1.062-1.579 1.836-.274.645-.38 1.322-.38 2.017V34.56c0 .431.041.858.136 1.28.234 1.048.776 1.9 1.67 2.527.56.392 1.184.65 1.843.831.708.194 1.43.296 2.163.34.988.06 1.973.052 2.952-.11a6.573 6.573 0 001.743-.517c.913-.429 1.595-1.081 2-2a5.236 5.236 0 00.43-2.11c.009-2.243.005-4.485.005-6.727 0-.029-.007-.058-.01-.085-.178-.028-5.328-.02-5.43.012v6.721c0 .182-.015.362-.076.535a.657.657 0 01-.477.44c-.18.048-.365.054-.548.022-.36-.061-.559-.252-.624-.606a2.22 2.22 0 01-.032-.397V17.262c0-.051-.003-.103.002-.155.008-.076.015-.154.034-.229a.72.72 0 01.52-.548c.172-.05.349-.054.522-.025.343.055.562.251.637.586.027.12.04.247.04.37.002 1.971.002 3.942.002 5.913v.174h5.44v-6.037c0-.44-.045-.876-.14-1.306-.146-.67-.413-1.286-.861-1.819-.452-.537-1.022-.912-1.671-1.178-.85-.346-1.743-.484-2.653-.535zm-15.008.096h-7.217c-.03.292-.016 26.781.011 26.878h5.722V29.09h.183c.763-.01 1.527.025 2.289-.036a7.008 7.008 0 001.572-.293c1.366-.434 2.264-1.318 2.664-2.676a6.634 6.634 0 00.253-1.887v-6.493c-.001-.284-.01-.568-.027-.851a5.584 5.584 0 00-.294-1.49c-.337-.972-.955-1.71-1.894-2.18-.437-.22-.9-.361-1.378-.456a9.63 9.63 0 00-1.884-.158zm-.424 3.896c.307.003.613.022.91.109.444.129.707.417.791.859.032.168.05.342.05.513.004 1.923.004 3.846.002 5.77 0 .224-.023.446-.091.662a1.002 1.002 0 01-.63.665c-.346.13-.708.148-1.086.155V16.48c.022-.006.038-.015.054-.015z" fill="#B9BABD"/></g></svg>