<svg width="132" height="60" viewBox="0 0 132 60" xmlns="http://www.w3.org/2000/svg"><g fill="#B9BABD" fill-rule="evenodd"><path d="M44.484 37.252l-1.844-1.843v-8.732h-4.592v-2.296h11.48v2.296h-4.592v10.575z"/><path d="M50.887 30.364c-.647 0-1.164.226-1.617.679a2.226 2.226 0 00-.68 1.617c0 .614.227 1.164.68 1.617a2.228 2.228 0 001.617.679h4.592v.453l-1.843 1.843h-2.75c-1.26 0-2.36-.453-3.233-1.358-.906-.906-1.358-1.973-1.358-3.234 0-1.262.452-2.361 1.358-3.234.905-.906 1.973-1.358 3.234-1.358h1.843c.744 0 1.423.258 1.94.808.55.55.809 1.197.809 1.94 0 .744-.259 1.423-.809 1.94a2.64 2.64 0 01-1.94.81h-3.2v-.454l1.39-1.39h1.843c.13 0 .227-.065.324-.194.097-.13.13-.291.13-.485s-.033-.356-.13-.485c-.097-.13-.194-.194-.324-.194h-1.875zm14.811-2.296v.452l-1.843 1.844h-2.749c-.647 0-1.164.226-1.617.679a2.226 2.226 0 00-.68 1.617c0 .614.227 1.164.68 1.617a2.23 2.23 0 001.617.679h4.592v.453l-1.843 1.843h-2.749c-1.261 0-2.36-.453-3.234-1.358-.905-.906-1.358-1.973-1.358-3.234 0-1.262.453-2.361 1.358-3.234.906-.906 1.973-1.358 3.234-1.358h4.592zm3.654 0h3.202c1.261 0 2.36.452 3.234 1.358.905.905 1.358 1.972 1.358 3.234v4.592h-2.263V32.66c0-.647-.227-1.164-.68-1.617a2.226 2.226 0 00-1.617-.68h-3.201v6.889h-2.296V24.38h2.296v3.687h-.033zm11.513-.486v9.638h-.485l-1.843-1.844V24.381h2.749l7.826 10.122V24.381h2.296v12.87h-2.749zm18.822 7.374V32.66c0-.647-.227-1.164-.68-1.617a2.226 2.226 0 00-1.616-.68h-4.593v-.452l1.844-1.843h2.749c1.26 0 2.36.452 3.234 1.358.905.905 1.358 1.972 1.358 3.234v4.592h-6.436c-.744 0-1.423-.259-1.94-.809a2.64 2.64 0 01-.809-1.94c0-.744.26-1.423.809-1.94a2.64 2.64 0 011.94-.809h3.202v.453l-1.39 1.39h-1.844c-.13 0-.226.065-.323.195-.097.129-.13.29-.13.485 0 .194.033.355.13.485s.194.194.323.194h4.172zm8.279 2.296c-1.262 0-2.361-.453-3.234-1.358-.906-.906-1.359-1.973-1.359-3.234 0-1.262.453-2.361 1.359-3.234.905-.906 1.972-1.358 3.234-1.358h2.296v.452l-1.844 1.844h-.452c-.647 0-1.165.226-1.617.679a2.226 2.226 0 00-.68 1.617c0 .614.227 1.164.68 1.617a2.226 2.226 0 001.617.679h3.201V24.38h2.296v12.87h-5.497zm12.418-2.296c.647 0 1.164-.227 1.617-.68a2.226 2.226 0 00.679-1.616v-4.592h2.296v4.592c0 1.26-.453 2.36-1.358 3.234-.906.905-1.973 1.358-3.234 1.358h-.906c-1.261 0-2.36-.453-3.234-1.358-.905-.906-1.358-1.973-1.358-3.234v-4.592h2.296v4.592c0 .647.227 1.164.68 1.617a2.226 2.226 0 001.616.679h.906zm-99.12 9.443c-8.376 0-15.167-6.791-15.167-15.167s6.791-15.167 15.167-15.167 15.167 6.79 15.167 15.167c0 8.376-6.791 15.167-15.167 15.167zm0-29.558c-7.923 0-14.39 6.435-14.39 14.39 0 7.956 6.435 14.392 14.39 14.392 7.956 0 14.391-6.436 14.391-14.391 0-7.956-6.435-14.391-14.39-14.391z"/><path d="M21.264 15.876c-7.34 0-13.324 5.982-13.324 13.356 0 7.373 5.983 13.356 13.356 13.356 7.374 0 13.357-5.983 13.357-13.356-.033-7.374-6.016-13.356-13.389-13.356zm8.182 9.41h-6.727v.841h5.886l-.873.873h-3.266v.906h2.393l-.873.873h-2.393v-1.746h-.874v12.289l-.873-.874V27.033h-1.1v10.316l-.872-.873v-9.443H19v1.746h-2.425l-.873-.873h2.425v-.873H14.83l-.874-.873h5.919v-.841h-6.76l-.873-.873h8.506v1.714h1.1v-1.714h8.472l-.873.84z"/></g></svg>