<svg width="132" height="60" viewBox="0 0 132 60" xmlns="http://www.w3.org/2000/svg"><path d="M114 35.087h4V39h-4zm-51.054-9.295v2.334h.05a4.335 4.335 0 011.636-1.933 4.772 4.772 0 011.165-.547 4.26 4.26 0 011.289-.195 2.8 2.8 0 01.768.122v3.21a7.005 7.005 0 00-1.264-.121c-.644 0-1.19.106-1.636.316a2.83 2.83 0 00-1.079.863 3.448 3.448 0 00-.582 1.278 6.83 6.83 0 00-.173 1.58v5.668H59.6V25.792h3.346zm4.871 3.867c.05-.81.256-1.484.62-2.019a4.19 4.19 0 011.388-1.289 6.14 6.14 0 011.896-.693 11.008 11.008 0 012.12-.207c.644 0 1.297.045 1.958.134a6.13 6.13 0 011.81.522c.545.26.99.621 1.338 1.083.346.463.52 1.075.52 1.837v6.543c0 .568.033 1.11.1 1.63.065.519.181.908.346 1.167h-3.569a4.924 4.924 0 01-.248-1.216 4.603 4.603 0 01-1.983 1.192 8.11 8.11 0 01-2.33.34 6.408 6.408 0 01-1.71-.22 3.937 3.937 0 01-1.388-.68 3.18 3.18 0 01-.93-1.167c-.223-.47-.334-1.03-.334-1.679 0-.713.128-1.3.384-1.763.256-.462.586-.83.991-1.107a4.481 4.481 0 011.388-.62 14.96 14.96 0 011.574-.328c.53-.081 1.05-.146 1.562-.195a9.588 9.588 0 001.363-.22c.397-.096.71-.238.942-.425.231-.186.339-.458.323-.815 0-.372-.062-.668-.187-.887a1.34 1.34 0 00-.496-.511 1.992 1.992 0 00-.718-.244 6.086 6.086 0 00-.88-.06c-.694 0-1.24.146-1.636.438-.397.291-.628.778-.694 1.459h-3.52zm8.13 2.554a1.58 1.58 0 01-.557.304 5.768 5.768 0 01-.72.183 11.22 11.22 0 01-.805.12c-.281.034-.562.074-.842.123a6.517 6.517 0 00-.782.195c-.256.08-.479.19-.669.327a1.58 1.58 0 00-.458.523c-.116.211-.173.479-.173.803 0 .309.057.568.173.779.115.21.272.377.47.498.199.122.43.207.695.256.264.048.537.073.818.073.694 0 1.231-.114 1.61-.34.38-.228.662-.5.844-.816a2.58 2.58 0 00.335-.96 6.78 6.78 0 00.062-.779v-1.289zm14.214 4.549c-.413.68-.954 1.171-1.623 1.471-.67.3-1.426.45-2.269.45-.958 0-1.801-.182-2.528-.547a5.055 5.055 0 01-1.797-1.484 6.661 6.661 0 01-1.066-2.153 8.854 8.854 0 01-.36-2.53c0-.842.12-1.657.36-2.444a6.3 6.3 0 011.066-2.08 5.294 5.294 0 011.772-1.447c.71-.364 1.537-.547 2.479-.547.76 0 1.483.158 2.169.474a3.758 3.758 0 011.623 1.399h.05V21h3.52v17.367H90.21v-1.605h-.049zm-.149-6.215a3.65 3.65 0 00-.508-1.265c-.24-.365-.55-.66-.93-.888-.38-.226-.859-.34-1.437-.34-.579 0-1.066.114-1.462.34a2.718 2.718 0 00-.955.9c-.24.374-.413.8-.52 1.277a6.776 6.776 0 00-.162 1.496c0 .487.058.973.174 1.46.115.486.301.92.558 1.3.256.382.578.69.966.925.389.235.855.353 1.401.353.578 0 1.061-.114 1.45-.34.388-.227.698-.532.93-.913.23-.38.396-.815.495-1.301.1-.487.15-.989.15-1.509 0-.518-.05-1.017-.15-1.495zm4.66-.888c.05-.81.256-1.484.62-2.019a4.19 4.19 0 011.387-1.289 6.14 6.14 0 011.897-.693 11.008 11.008 0 012.12-.207c.644 0 1.296.045 1.958.134.66.089 1.264.264 1.809.522.546.26.992.621 1.339 1.083.346.463.52 1.075.52 1.837v6.543c0 .568.033 1.11.1 1.63.065.519.18.908.346 1.167h-3.57a4.923 4.923 0 01-.248-1.216 4.603 4.603 0 01-1.982 1.192 8.11 8.11 0 01-2.33.34 6.408 6.408 0 01-1.71-.22 3.937 3.937 0 01-1.388-.68 3.18 3.18 0 01-.93-1.167c-.223-.47-.334-1.03-.334-1.679 0-.713.127-1.3.383-1.763.256-.462.587-.83.992-1.107a4.481 4.481 0 011.388-.62 14.96 14.96 0 011.574-.328c.529-.081 1.05-.146 1.562-.195a9.588 9.588 0 001.363-.22c.397-.096.71-.238.942-.425.231-.186.339-.458.322-.815 0-.372-.062-.668-.186-.887-.124-.22-.29-.39-.496-.511a1.992 1.992 0 00-.718-.244 6.086 6.086 0 00-.88-.06c-.694 0-1.24.146-1.636.438-.397.291-.629.778-.694 1.459h-3.52zm8.13 2.554a1.58 1.58 0 01-.558.304 5.768 5.768 0 01-.718.183 11.22 11.22 0 01-.806.12c-.281.034-.562.074-.843.123a6.517 6.517 0 00-.78.195c-.257.08-.48.19-.67.327a1.58 1.58 0 00-.458.523c-.116.211-.174.479-.174.803 0 .309.058.568.174.779.115.21.272.377.47.498.199.122.43.207.695.256.264.048.537.073.818.073.693 0 1.23-.114 1.61-.34.38-.228.662-.5.843-.816a2.58 2.58 0 00.335-.96 6.56 6.56 0 00.062-.779v-1.289zm8.484-6.421v2.334h.05a4.335 4.335 0 011.636-1.933 4.772 4.772 0 011.165-.547 4.26 4.26 0 011.289-.195 2.8 2.8 0 01.768.122v3.21a7.005 7.005 0 00-1.264-.121c-.645 0-1.19.106-1.636.316a2.83 2.83 0 00-1.079.863 3.448 3.448 0 00-.582 1.278 6.83 6.83 0 00-.173 1.58v5.668h-3.52V25.792h3.346zm-70.934-.342c.76 0 1.492.098 2.194.293.702.194 1.33.49 1.884.888a4.783 4.783 0 011.35 1.483c.348.593.546 1.294.595 2.104h-3.444c-.232-1.443-1.1-2.164-2.604-2.164-.561 0-1.032.125-1.412.377a3.02 3.02 0 00-.93.973 4.14 4.14 0 00-.508 1.313 6.687 6.687 0 000 2.81c.099.47.26.895.483 1.277.223.38.525.693.905.936.38.243.843.365 1.388.365.843 0 1.492-.232 1.946-.693.455-.463.74-1.083.855-1.861h3.396c-.232 1.67-.892 2.943-1.983 3.818-1.09.876-2.487 1.314-4.189 1.314-.959 0-1.838-.158-2.64-.474a5.86 5.86 0 01-2.045-1.326 6.007 6.007 0 01-1.314-2.03 6.657 6.657 0 01-.444-1.934H24.86c.05 1.118.339 1.93.868 2.432.529.503 1.289.754 2.28.754.71 0 1.322-.174 1.834-.523.513-.349.827-.717.943-1.107h3.098c-.496 1.508-1.256 2.587-2.28 3.235-1.026.649-2.265.973-3.719.973-1.008 0-1.917-.158-2.726-.474a5.681 5.681 0 01-2.058-1.35 6.046 6.046 0 01-1.3-2.092c-.307-.81-.46-1.702-.46-2.676 0-.94.158-1.816.472-2.626a6.14 6.14 0 011.338-2.104 6.3 6.3 0 012.07-1.4c.801-.34 1.69-.51 2.664-.51 1.09 0 2.041.207 2.85.62.81.414 1.476.97 1.996 1.667a6.777 6.777 0 011.128 2.383c.04.154.076.309.107.465.069-.357.162-.702.277-1.036a6.073 6.073 0 011.277-2.165 5.845 5.845 0 012.057-1.423c.81-.34 1.736-.511 2.776-.511zm-20.7-3.428v3.77h2.577v2.31h-2.577v6.227c0 .584.099.973.297 1.168.198.194.595.291 1.19.291.198 0 .388-.007.57-.024.181-.015.355-.04.52-.073v2.676c-.297.049-.628.08-.991.097a23.88 23.88 0 01-1.066.025 10.48 10.48 0 01-1.55-.11 3.702 3.702 0 01-1.288-.426 2.268 2.268 0 01-.88-.9c-.215-.389-.322-.9-.322-1.532v-7.419H14v-2.31h2.132v-3.77h3.52zM50.069 21v6.543h.074c.446-.73 1.017-1.26 1.71-1.593.695-.332 1.372-.499 2.033-.499.942 0 1.714.126 2.318.377.602.252 1.078.6 1.425 1.046.347.446.59.99.732 1.63a10 10 0 01.21 2.128v7.735h-3.52v-7.102c0-1.038-.165-1.813-.496-2.323-.33-.512-.917-.767-1.76-.767-.958 0-1.652.28-2.082.84-.43.559-.644 1.48-.644 2.76v6.592h-3.52V21h3.52zm-22.284 7.054c-.562 0-1.028.093-1.4.28-.372.186-.67.417-.893.693-.223.276-.38.568-.47.876a3.922 3.922 0 00-.162.826h5.726c-.165-.875-.458-1.54-.88-1.994-.421-.454-1.062-.681-1.92-.681z" fill="#B9BABD" fill-rule="evenodd"/></svg>