<svg width="186" height="34" viewBox="0 0 186 34" xmlns="http://www.w3.org/2000/svg"><g fill="#FFF" fill-rule="evenodd"><path d="M4.251 33.808c-6.395-8.822-5.1-21.047 2.999-28.335 8.1-7.288 20.394-7.288 28.493 0 8.1 7.288 9.394 19.513 3 28.335L28.516 17.161l-.987 1.672 1.002 4.647-7.035-12.05-4.346 7.357 1.022 4.693-3.696-6.309L4.25 33.808zm59.986-7.963l-7.485-11.21v11.21h-3.323V9.59h3.834l7.076 10.606V9.59h3.324v16.256h-3.426zm5.404-5.522c0-3.303 2.718-5.813 6.082-5.813s6.02 2.45 6.02 5.75c0 3.343-2.72 5.833-6.061 5.833-3.341 0-6.04-2.428-6.04-5.77zm3.324-.043c0 1.682 1.224 2.845 2.74 2.845 1.516 0 2.717-1.163 2.717-2.845a2.717 2.717 0 00-2.737-2.812c-1.516 0-2.72 1.163-2.72 2.812zm16.72-5.522v3.178a5.729 5.729 0 00-1.037-.085c-1.557 0-2.638 1.082-2.638 3.134v4.858h-3.183V14.758h3.068v1.62h.04c.601-1.277 1.724-1.743 2.866-1.743.294.01.587.05.872.123h.013zm9.35 11.087v-1.414h-.041c-1.038 1.516-2.697 1.621-3.446 1.621-3.216 0-5.272-2.781-5.272-5.772 0-2.812 2.138-5.729 5.313-5.729a4.3 4.3 0 013.323 1.475h.04V8.947h3.22v16.898h-3.137zm0-5.565a2.74 2.74 0 10-5.479 0c0 1.682 1.225 2.845 2.74 2.845 1.517 0 2.739-1.163 2.739-2.845z"/><path fill-rule="nonzero" d="M105.362 8.73h3.517v13.748h7.322v3.367h-10.84zm18.464 5.18c3.52 0 6.338 2.579 6.338 6.055 0 3.518-2.86 6.136-6.391 6.136-3.53 0-6.36-2.557-6.36-6.077.01-3.469 2.873-6.115 6.413-6.115zm-.023 9.072c1.598 0 2.866-1.225 2.866-2.996a2.863 2.863 0 00-2.886-2.973c-1.595 0-2.863 1.224-2.863 2.973 0 1.748 1.288 2.996 2.883 2.996zm8.084-2.952c0-3.452 2.776-6.12 6.36-6.12 2.429 0 5.072 1.31 5.662 3.98l-3.103.938c-.256-.874-1.158-1.79-2.623-1.79-1.508 0-2.797 1.094-2.797 2.95 0 1.726 1.136 2.974 2.812 2.974a2.756 2.756 0 002.69-1.816l3.103.941c-.744 2.69-3.323 4.021-5.836 4.021-3.666-.002-6.268-2.59-6.268-6.079zm17.767.283v5.532h-3.408V8.032h3.408V18.77l4.044-4.601h4.346l-4.699 5.368 4.832 6.296h-4.305l-4.131-5.519zm12.214.649c.217 1.463 1.462 2.301 2.884 2.301.984 0 2.078-.59 2.472-1.552l2.796.962c-.766 2.252-2.93 3.453-5.225 3.453-3.54 0-6.39-2.49-6.39-6.12 0-3.364 2.811-6.097 6.186-6.097 3.474 0 5.813 2.383 5.813 5.837.008.408-.007.817-.044 1.224l-8.492-.008zm5.113-2.252c-.064-.851-.785-2.045-2.49-2.045a2.628 2.628 0 00-2.536 2.045h5.026zm13.048-1.194a6.158 6.158 0 00-1.094-.087c-1.64 0-2.777 1.138-2.777 3.3v5.114h-3.346v-11.67h3.236v1.705h.044c.634-1.335 1.812-1.836 3.014-1.836.31.01.62.053.92.13l.003 3.344z"/><path d="M184.135 11.354h-.358v.516h.365c.158 0 .33-.066.33-.258 0-.205-.172-.258-.337-.258zm-.358 1.669h-.43v-2.08h.821c.404 0 .742.212.742.656a.602.602 0 01-.398.596l.431.828h-.47l-.378-.749h-.318v.749zm-1.198-1.04c0 .828.655 1.49 1.47 1.49.808 0 1.476-.662 1.476-1.49s-.668-1.49-1.476-1.49c-.815 0-1.47.662-1.47 1.49zm-.344 0c0-1 .807-1.82 1.814-1.82a1.82 1.82 0 110 3.642 1.814 1.814 0 01-1.814-1.822z"/></g></svg>