<?xml version="1.0" encoding="UTF-8" standalone="no"?>
<!DOCTYPE svg PUBLIC "-//W3C//DTD SVG 1.1//EN" "http://www.w3.org/Graphics/SVG/1.1/DTD/svg11.dtd">
<svg version="1.1" xmlns="http://www.w3.org/2000/svg" xmlns:xlink="http://www.w3.org/1999/xlink" preserveAspectRatio="xMidYMid meet" viewBox="0 0 640 640" width="640" height="640"><defs><path d="M490.28 299.34C490.28 395.02 406.42 472.7 303.12 472.7C199.82 472.7 115.96 395.02 115.96 299.34C115.96 203.66 199.82 125.97 303.12 125.97C406.42 125.97 490.28 203.66 490.28 299.34Z" id="c4oBfiXm2q"></path><path d="M302.34 261.42L302.34 259.86L303.9 259.86L303.9 261.42L302.34 261.42Z" id="a3eaPPWEQ"></path><path d="M315.39 289.28C306.31 293.61 300.79 292.38 290.87 289.57C296.07 284.41 311.11 285.63 315.39 289.28Z" id="c6jwxJ56aD"></path><path d="M297.11 291.91C296.35 291.62 295.61 291.38 294.77 291.26C293.73 291.11 291.81 291.38 291.05 290.76C290.23 290.09 290.89 289.04 292.01 289C293.39 289.02 294.78 289.1 296.12 289.38C298.46 289.87 300.46 291.15 302.94 291.31C304.82 291.43 306.91 290.49 308.59 289.93C309.91 289.49 314.32 287.85 315.39 289.28C316.05 290.17 314.99 290.8 313.98 290.85C312.72 290.9 311.49 291.24 310.33 291.6C308.08 292.3 305.69 293.39 303.22 293.39C301.11 293.39 298.97 292.64 297.11 291.91Z" id="a1P51sVsuQ"></path><path d="M428.73 394.83C415.89 391.08 386.89 386.55 376.13 384.04C367.51 382.01 350.15 366.42 344.07 361.19C342.98 360.26 342.08 358.32 342.06 356.89C341.84 339.95 348.6 294.94 348.6 294.94C345.57 294.94 330.41 294.94 303.12 294.94C275.83 294.94 260.67 294.94 257.64 294.94C257.64 294.94 264.4 339.95 264.18 356.89C264.16 358.32 263.26 360.26 262.17 361.19C256.09 366.42 238.73 382.01 230.11 384.04C219.35 386.55 190.35 391.24 177.51 394.98C167.11 398.01 157.76 408.83 154.33 416.23C148.55 428.71 147.19 451.31 147.19 470.8C157.58 470.8 209.56 470.8 303.12 470.8C396.68 470.8 448.66 470.8 459.05 470.8C459.05 451.31 457.69 428.71 451.91 416.23C448.48 408.83 439.13 397.86 428.73 394.83Z" id="a3MPIXENet"></path><path d="M454.3 470.81C454.77 470.81 458.58 470.81 459.05 470.81C459.05 451.31 457.69 428.72 451.91 416.23C448.48 408.83 439.13 397.86 428.73 394.83C415.89 391.09 386.89 386.56 376.13 384.04C367.51 382.02 347.69 365.22 342.39 358.54C347.62 365.88 362.33 382.88 375.22 387.33C381.38 389.46 386.51 390.43 395.36 391.72C433.32 397.24 449.29 405.29 454.3 470.81ZM263.86 358.54C258.55 365.22 238.73 382.02 230.11 384.04C219.35 386.56 190.35 391.24 177.51 394.99C167.11 398.01 157.76 408.83 154.33 416.23C148.56 428.71 147.19 451.31 147.19 470.8C147.66 470.8 151.47 470.8 151.94 470.8C156.91 405.71 172.96 397.23 210.88 391.71C219.73 390.43 224.86 389.46 231.03 387.33C243.91 382.88 258.61 365.88 263.86 358.54Z" id="bER6HtjMB"></path><path d="M285.29 409.15C268.99 402.9 216.06 398.85 216.06 398.85C216.06 398.85 271.81 401.06 284.11 403.18C283.4 395.75 279.41 371.99 279.41 371.99C279.41 371.99 287.44 398.21 289.4 404.83C290.45 408.36 296.33 412.86 296.33 412.86C294.12 412.12 288.42 410.35 285.29 409.15ZM312.7 411.19C312.87 411.06 313.03 410.92 313.17 410.77C313.03 410.88 312.87 411.03 312.7 411.19ZM303.11 417.59C306.09 417.67 310.64 413.07 312.7 411.19C310.73 412.68 306.21 413.36 304.42 413.43C302.35 413.51 296.33 412.86 296.33 412.86C297.69 413.81 300.84 417.53 303.11 417.59ZM322.26 402.37C322.62 400.05 325.47 381.47 325.83 379.15C324.82 383.94 318.85 404.43 313.17 410.77C316.15 408.25 322.77 407.04 326.15 406.55C342.11 404.24 342.1 404.24 390.18 398.85C390.18 398.85 344.85 398.61 329.1 401.14C326.69 401.52 323.63 402.12 322.26 402.37Z" id="b40XyiUnv"></path><path d="M428.73 394.83C415.89 391.08 386.89 386.55 376.13 384.04C367.51 382.01 350.15 366.42 344.07 361.19C342.98 360.26 342.08 358.32 342.06 356.89C341.84 339.95 348.6 294.94 348.6 294.94C345.57 294.94 330.41 294.94 303.12 294.94C275.83 294.94 260.67 294.94 257.64 294.94C257.64 294.94 264.4 339.95 264.18 356.89C264.16 358.32 263.26 360.26 262.17 361.19C256.09 366.42 238.73 382.01 230.11 384.04C219.35 386.55 190.35 391.24 177.51 394.98C167.11 398.01 157.76 408.83 154.33 416.23C148.55 428.71 147.19 451.31 147.19 470.8C157.58 470.8 209.56 470.8 303.12 470.8C396.68 470.8 448.66 470.8 459.05 470.8C459.05 451.31 457.69 428.71 451.91 416.23C448.48 408.83 439.13 397.86 428.73 394.83Z" id="a8i39Oys1"></path><path d="M303.12 372.7C315.33 372.7 330.17 365.98 341.26 358.87C341.03 358.21 340.9 357.53 340.89 356.9C340.69 341.5 346.1 303.85 347.24 296.12C338.42 296.12 267.82 296.12 258.99 296.12C260.13 303.85 265.55 341.5 265.35 356.9C265.34 357.55 265.19 358.26 264.94 358.96C275.82 366.04 290.37 372.7 303.12 372.7Z" id="a2SNUoofdG"></path><linearGradient id="gradientfJ64wRukC" gradientUnits="userSpaceOnUse" x1="303.12" y1="372.91" x2="303.12" y2="294.95"><stop style="stop-color: #844e35;stop-opacity: 0.8" offset="0%"></stop><stop style="stop-color: #652e15;stop-opacity: 1" offset="70%"></stop></linearGradient><path d="M215.13 472.18C211.44 472.16 181.9 472 178.21 471.98C155.91 471.86 154.6 471.83 151.88 471.83C151.11 471.83 145 471.84 144.24 471.84C137.11 406.55 166.71 389.4 212.48 383.42C224.62 381.71 236.57 378.59 245.94 372.54C271.4 407.23 347 399.93 359.93 371.56C362.1 372.39 363.89 373.46 366.13 374.27C373.41 379.62 383.4 383.37 393.62 383.93C434.17 386.18 462.88 404.2 462.32 469.14C462.32 469.39 462.32 470.97 462.3 471.46C442.79 471.46 435.47 471.65 420.14 471.87C399.36 472.16 373.48 472.53 321.55 472.53C321.54 472.53 321.54 472.53 321.53 472.53C291.69 472.53 256.89 472.42 215.13 472.18Z" id="a1UDlIUb13"></path><path d="M444.54 412.05C425.08 382.73 378.65 393.02 367.93 381.34C360.16 397.18 328.99 407.22 318.66 408.69C348.57 398.78 361.14 391.6 366.1 374.59C376.09 387.58 430.15 377.66 451.42 412.53C457.65 422.74 463.57 455.23 460.7 470.59C460.06 459.07 454.36 426.84 444.54 412.05ZM239.49 379.17C239.26 378.88 237.48 376.52 237.26 376.22C223.15 387.22 170.35 380.35 152.25 413.7C146.54 424.21 142.7 449.24 145.71 470.52C146.55 457.45 146.96 429.49 156.78 414.7C174.43 388.1 206.63 395.13 231.03 383.87C241.92 397.28 258.92 403.87 276.23 406.6C254.52 400.94 242.07 391.38 234.21 381.69C236.33 381.2 237.39 379.74 239.49 379.17Z" id="aAmVvjxPV"></path><path d="M247.58 376.22C245.29 377.19 238.45 379.52 238.45 379.52C265.23 415.98 343.72 416.21 364.61 379.34C364.52 379.3 360.3 375.93 358.18 374.85C349.55 392.81 284.35 413.72 247.58 376.22Z" id="b2bfS12KqO"></path><path d="M246 372.34C237.68 374.8 229.67 380.05 221.62 381.36C173.4 388.54 137.76 392.15 144.07 472.01C159.57 472.01 133.76 471.91 215.13 472.35C407.85 473.45 401.56 471.63 462.45 471.63C462.49 471.41 462.47 469.36 462.48 469.14C465.75 381.14 414.37 386.33 379.65 380.26C374.75 379.15 370.19 375.94 366.18 374.11C363.97 373.1 362.09 372.19 359.85 371.36C345.17 400.71 268.79 404.86 246 372.34ZM361.01 373.48C362.88 374.27 363.36 374.58 365.53 375.35C349.55 408.86 270.5 419.54 238.17 377.16C238.4 377.1 243.17 374.18 245.45 373.33C265.68 409.8 345.58 402.48 361.01 373.48ZM196.98 387.62C213.01 384.67 222.8 384.56 236.57 378.59C262.7 421.32 348.99 414.7 366.92 376.55C369.5 378.75 373.52 381.28 378.47 382.45C406.69 389.16 463.98 381.06 460.96 470.8C376.66 469.71 306.79 467.15 145.87 470.8C142.09 429.59 148.67 395.89 196.98 387.62Z" id="c15QcllEwq"></path><path d="M400.91 223.57C405.2 225.03 406.05 229.8 406.74 234.01C407.66 239.61 406.01 250.68 404.57 254.69C403.2 258.53 399.07 265.96 396.36 268.79C393.04 272.26 388.92 283.33 388.27 284.48C387.24 286.29 385.87 289.02 381.84 288.68C377.39 288.3 374.69 285.79 372.71 285.37C367.81 284.33 379.77 244.45 385.35 234.49C387.5 230.67 394.15 221.27 400.91 223.57Z" id="a1Q8KRAqDC"></path><path d="M384.07 267.26C383.94 267.74 383.93 268.76 383.96 269.58C383.98 270.25 384.13 270.78 384.28 270.76C384.43 270.75 384.51 270.2 384.49 269.53C384.48 269.01 384.48 268.45 384.51 268.02C384.78 268.26 385.15 268.48 385.64 268.48C385.92 268.48 386.24 268.41 386.59 268.24C388.32 267.42 388.92 266.29 389.44 265.29C389.89 264.43 390.29 263.69 391.33 263.19C393.22 262.28 396.07 258.99 396.7 256.43C398.41 249.5 393.73 240.83 393.06 239.64C393.39 238.79 393.73 238 394.02 237.33C394.4 236.48 394.89 235.45 395.47 234.38C396.61 236.66 401.71 247.42 400.23 254.68C398.83 261.52 392.58 269.55 390.42 272.17C390.02 272.66 389.77 273.15 389.87 273.26C389.97 273.38 390.4 273.09 390.8 272.6C392.99 269.97 399.3 261.9 400.75 254.81C400.86 254.27 400.93 253.71 400.98 253.14C401.28 252.59 403.25 248.96 403.77 244.11C404.43 237.93 402.9 228.87 402.61 227.2C403.35 227.13 403.88 227.44 404.25 227.8C404.7 228.24 405.01 228.7 405.14 228.63C405.27 228.57 405.18 228 404.77 227.53C404.2 226.88 403.23 226.24 401.75 226.77C398.16 228.07 395.31 233.08 393.54 237.06C392.01 240.52 389.66 246.91 389.24 250.27C389.13 251.17 389.31 252.43 389.51 253.78C389.72 255.25 389.93 256.78 389.73 257.68C389.41 259.09 388.13 260.82 386.9 262.51C385.64 264.22 384.46 265.83 384.07 267.26ZM399.24 229.13C400.01 230.66 404.42 240.27 401.03 251.4C400.88 243.91 396.49 235.14 395.8 233.8C396.75 232.12 397.92 230.41 399.24 229.13ZM387.31 262.89C388.58 261.16 389.89 259.37 390.25 257.84C390.48 256.81 390.25 255.22 390.04 253.68C389.86 252.44 389.68 251.16 389.78 250.35C389.88 249.48 390.13 248.38 390.46 247.19C391.54 248.06 395.84 252.33 391.96 262.1C391.67 262.32 391.38 262.51 391.12 262.63C389.92 263.21 389.44 264.11 388.98 264.98C388.47 265.94 387.95 266.94 386.38 267.68C385.33 268.18 384.8 267.56 384.63 267.31C385.02 266.01 386.18 264.43 387.31 262.89Z" id="b13H4osesA"></path><path d="M208.21 202.26C208.22 210.69 209.31 218.86 211.33 226.64C211.33 226.64 211.33 226.64 211.33 226.64C211.35 226.72 224.34 258.57 227.65 278.42C231.36 300.68 243.96 325.56 253.07 334.22C262.51 343.19 284.69 357.11 303.12 357.11C320.69 357.11 343.74 343.19 353.17 334.22C362.28 325.56 374.88 300.68 378.59 278.42C381.9 258.57 394.89 226.72 394.91 226.64C394.91 226.64 394.91 226.64 394.91 226.64C396.94 218.85 398.02 210.69 398.03 202.26C398.12 149.21 355.54 106.14 303.12 106.06C250.7 106.14 208.13 149.21 208.21 202.26Z" id="b2264jQd1M"></path><path d="M393.46 199.94C393.45 208.36 392.42 216.53 390.49 224.31C390.49 224.31 390.49 224.31 390.49 224.31C390.47 224.4 378.11 256.25 374.96 276.09C371.42 298.35 359.43 323.23 350.76 331.89C341.78 340.87 319.84 354.79 303.12 354.79C285.58 354.79 264.46 340.87 255.48 331.89C246.82 323.23 234.82 298.35 231.29 276.09C228.14 256.25 215.77 224.4 215.76 224.31C215.76 224.31 215.76 224.31 215.76 224.31C213.83 216.53 212.8 208.36 212.78 199.94C212.74 170.12 225.52 143.46 245.58 125.81C222.84 143.39 208.16 171.1 208.21 202.26C208.22 210.69 209.31 218.86 211.33 226.64C211.33 226.64 211.33 226.64 211.33 226.64C211.35 226.72 224.34 258.57 227.65 278.42C231.36 300.68 243.96 325.56 253.07 334.22C262.51 343.19 284.69 357.11 303.12 357.11C320.69 357.11 343.74 343.19 353.17 334.22C362.28 325.56 374.88 300.68 378.59 278.42C381.9 258.57 394.89 226.72 394.91 226.64C394.91 226.64 394.91 226.64 394.91 226.64C396.94 218.85 398.02 210.69 398.03 202.26C398.08 171.09 383.4 143.39 360.66 125.81C380.72 143.45 393.5 170.12 393.46 199.94Z" id="g3maRvp6CC"></path><path d="M208.21 202.26C208.22 210.69 209.31 218.86 211.33 226.64C211.33 226.64 211.33 226.64 211.33 226.64C211.35 226.72 224.34 258.57 227.65 278.42C231.36 300.68 243.96 325.56 253.07 334.22C262.51 343.19 284.69 357.11 303.12 357.11C320.69 357.11 343.74 343.19 353.17 334.22C362.28 325.56 374.88 300.68 378.59 278.42C381.9 258.57 394.89 226.72 394.91 226.64C394.91 226.64 394.91 226.64 394.91 226.64C396.94 218.85 398.02 210.69 398.03 202.26C398.12 149.21 355.54 106.14 303.12 106.06C250.7 106.14 208.13 149.21 208.21 202.26Z" id="a5DQN5UyiZ"></path><path d="M297.75 323.32C297.75 323.32 303.88 324.2 308.65 322.77C308.65 322.77 307.32 327.41 303.43 327.61C299.02 327.83 298.89 324.18 297.75 323.32Z" id="bVL8Z31bc"></path><linearGradient id="gradientbIAPekQaj" gradientUnits="userSpaceOnUse" x1="303.12" y1="326.13" x2="303.12" y2="321.45"><stop style="stop-color: #8b573f;stop-opacity: 1" offset="10%"></stop><stop style="stop-color: #844e35;stop-opacity: 1" offset="100%"></stop></linearGradient><path d="M297.83 324.06C297.62 324.04 297.46 323.85 297.49 323.64C297.51 323.42 297.71 323.27 297.91 323.29C297.98 323.29 304.3 323.92 308.42 322.76C308.62 322.71 308.84 322.83 308.9 323.03C308.96 323.24 308.84 323.45 308.63 323.51C307.18 323.92 305.48 324.12 303.88 324.2C300.79 324.36 298.01 324.08 297.83 324.06Z" id="b4uvjLTLs"></path><path d="M301.9 310.22C309 310.24 331.97 307.89 331.97 307.89C325.33 313.4 318.02 318.7 301.47 318.8C286.67 318.9 282.88 313.52 275.83 307.89C281.04 308.35 295.37 310.2 301.9 310.22Z" id="bpJfRPYIW"></path><path d="M301.9 310.22C309 310.24 331.97 307.89 331.97 307.89C325.33 313.4 318.02 318.7 301.47 318.8C286.67 318.9 282.88 313.52 275.83 307.89C281.04 308.35 295.37 310.2 301.9 310.22Z" id="cVivTMwtu"></path><path d="M263.3 228.63C275.02 230.07 283.16 237.25 282.09 240.86C281.5 242.87 265.5 245.92 259.87 245.3C254.15 244.67 245.38 241.99 243.48 233.39C242.69 229.83 251.57 227.19 263.3 228.63Z" id="a4PCSV5ypb"></path><radialGradient id="gradienta222sLDDdZ" gradientUnits="userSpaceOnUse" cx="261.4" cy="236.42" dx="-107.44" dy="770.57" r="649.12"><stop style="stop-color: #ffffff;stop-opacity: 1" offset="0%"></stop><stop style="stop-color: #fcfdfd;stop-opacity: 1" offset="31.5%"></stop><stop style="stop-color: #f4f7f8;stop-opacity: 1" offset="50.4%"></stop><stop style="stop-color: #e5ecef;stop-opacity: 1" offset="66%"></stop><stop style="stop-color: #d8e2e7;stop-opacity: 1" offset="76%"></stop></radialGradient><path d="M262.97 245.44C257.8 245.44 253.61 241.25 253.61 236.08C253.61 236.08 253.61 236.08 253.61 236.08C253.61 230.91 257.8 226.73 262.97 226.73C268.13 226.72 272.32 230.91 272.32 236.08C272.32 236.08 272.32 236.08 272.32 236.08C269.53 242.32 266.41 245.44 262.97 245.44Z" id="f3eq69ijh4"></path><path d="M261.81 226.84C261.85 227.05 261.9 227.27 261.94 227.48C261.93 227.26 261.93 227.04 261.92 226.83C261.88 226.83 261.85 226.84 261.81 226.84ZM262.75 234.28C263.02 233.19 262.55 230.49 261.94 227.47C262.05 230.55 262.23 233.29 262.75 234.28ZM262.42 234.78C262.27 234.84 262.07 234.77 261.85 234.62C261.91 234.88 261.91 235.08 261.79 235.21C261.68 235.33 261.48 235.36 261.21 235.33C261.39 235.53 261.48 235.72 261.44 235.88C261.4 236.04 261.23 236.16 260.98 236.26C261.23 236.35 261.4 236.48 261.44 236.64C261.47 236.8 261.38 236.99 261.21 237.19C261.47 237.15 261.68 237.19 261.79 237.32C261.9 237.44 261.9 237.65 261.84 237.91C262.06 237.75 262.26 237.69 262.41 237.75C262.57 237.81 262.67 237.99 262.73 238.25C262.86 238.01 263 237.86 263.17 237.84C263.33 237.82 263.51 237.94 263.68 238.14C263.68 237.87 263.74 237.67 263.88 237.58C264.02 237.48 264.22 237.5 264.47 237.6C264.35 237.36 264.31 237.16 264.39 237.01C264.46 236.86 264.66 236.78 264.92 236.75C264.7 236.59 264.57 236.44 264.57 236.27C264.57 236.1 264.7 235.94 264.93 235.79C264.66 235.76 264.47 235.68 264.39 235.53C264.32 235.38 264.36 235.18 264.48 234.94C264.23 235.04 264.03 235.06 263.89 234.96C263.75 234.87 263.69 234.67 263.69 234.4C263.52 234.6 263.35 234.71 263.18 234.69C263.01 234.67 262.87 234.52 262.75 234.28C262.68 234.54 262.58 234.72 262.42 234.78ZM266.14 228C264.81 230.77 263.69 233.28 263.69 234.4C264.44 233.56 265.29 230.95 266.14 228ZM266.42 227.42C266.38 227.41 266.35 227.39 266.32 227.38C266.26 227.59 266.2 227.8 266.14 228C266.23 227.81 266.33 227.61 266.42 227.42ZM269.62 230.41C267.16 232.25 265 233.95 264.48 234.94C265.53 234.55 267.49 232.63 269.62 230.41ZM270.1 230.06C270.08 230.03 270.05 230.01 270.03 229.99C269.9 230.13 269.76 230.27 269.62 230.41C269.78 230.3 269.94 230.18 270.1 230.06ZM271.58 234.17C268.55 234.65 265.85 235.16 264.92 235.79C266.03 235.93 268.66 235.14 271.58 234.17ZM272.11 234.09C272.1 234.06 272.09 234.03 272.09 234C271.92 234.06 271.75 234.11 271.58 234.17C271.76 234.15 271.93 234.12 272.11 234.09ZM271.57 238.41C268.66 237.42 266.03 236.62 264.92 236.75C265.84 237.39 268.53 237.91 271.57 238.41ZM272.01 238.56C272.02 238.53 272.03 238.51 272.03 238.48C271.88 238.46 271.72 238.43 271.57 238.41C271.72 238.46 271.87 238.51 272.01 238.56ZM269.59 242.15C267.47 239.92 265.52 237.99 264.47 237.59C264.99 238.59 267.13 240.3 269.59 242.15ZM269.87 242.45C269.89 242.43 269.9 242.41 269.92 242.4C269.81 242.31 269.7 242.23 269.59 242.15C269.68 242.25 269.78 242.35 269.87 242.45ZM266.1 244.55C265.26 241.59 264.43 238.97 263.68 238.14C263.68 239.26 264.78 241.77 266.1 244.55ZM266.19 244.91C266.22 244.9 266.23 244.89 266.26 244.89C266.2 244.77 266.15 244.66 266.1 244.55C266.13 244.67 266.16 244.79 266.19 244.91ZM261.89 245.05C262.52 242.04 263 239.34 262.73 238.25C262.21 239.24 262.02 241.97 261.89 245.05ZM261.82 245.4C261.84 245.41 261.85 245.41 261.88 245.41C261.88 245.29 261.89 245.17 261.89 245.05C261.86 245.16 261.84 245.28 261.82 245.4ZM257.93 243.53C259.89 241.16 261.57 238.99 261.84 237.9C260.91 238.54 259.47 240.87 257.93 243.53ZM257.68 243.83C257.7 243.85 257.72 243.86 257.74 243.87C257.8 243.76 257.87 243.65 257.93 243.53C257.85 243.63 257.76 243.74 257.68 243.83ZM255.13 240.35C257.97 239.16 260.46 238.03 261.21 237.19C260.1 237.32 257.73 238.71 255.13 240.35ZM254.72 240.53C254.73 240.55 254.75 240.57 254.76 240.59C254.88 240.51 255.01 240.43 255.13 240.36C255 240.41 254.86 240.47 254.72 240.53ZM254.13 236.24C257.19 236.5 259.93 236.65 260.98 236.26C259.94 235.86 257.2 236 254.13 236.24ZM253.63 236.2C253.63 236.23 253.62 236.25 253.63 236.28C253.8 236.27 253.97 236.25 254.13 236.24C253.96 236.23 253.79 236.21 253.63 236.2ZM255.16 232.13C257.75 233.79 260.1 235.2 261.21 235.33C260.47 234.49 257.99 233.34 255.16 232.13ZM254.67 231.82C254.66 231.85 254.64 231.88 254.62 231.91C254.81 231.98 254.99 232.06 255.16 232.13C255 232.03 254.83 231.92 254.67 231.82ZM257.98 228.97C259.5 231.64 260.93 233.98 261.85 234.62C261.59 233.53 259.91 231.35 257.98 228.97ZM257.66 228.42C257.64 228.44 257.6 228.46 257.58 228.48C257.71 228.65 257.85 228.81 257.98 228.97C257.87 228.79 257.77 228.61 257.66 228.42Z" id="m2PpoWFcuT"></path><radialGradient id="gradientb4Ic2HZrD0" gradientUnits="userSpaceOnUse" cx="262.85" cy="236.11" dx="443.04" dy="336.67" r="206.35"><stop style="stop-color: #ffffff;stop-opacity: 1" offset="0%"></stop><stop style="stop-color: #ffffff;stop-opacity: 0" offset="100%"></stop></radialGradient><path d="M264.24 226.84C264.23 227.06 264.21 227.28 264.2 227.49C264.25 227.28 264.3 227.07 264.35 226.86C264.31 226.86 264.27 226.85 264.24 226.84ZM263.22 234.27C263.76 233.29 264.01 230.56 264.2 227.49C263.51 230.49 262.97 233.18 263.22 234.27ZM262.78 234.67C262.61 234.68 262.44 234.57 262.27 234.36C262.26 234.63 262.2 234.83 262.06 234.92C261.92 235.01 261.71 234.99 261.47 234.89C261.59 235.13 261.62 235.33 261.54 235.48C261.46 235.62 261.27 235.7 261 235.72C261.22 235.88 261.35 236.04 261.34 236.21C261.34 236.37 261.2 236.53 260.98 236.68C261.25 236.72 261.44 236.8 261.51 236.95C261.58 237.1 261.54 237.3 261.41 237.54C261.66 237.45 261.86 237.43 262 237.53C262.14 237.63 262.19 237.83 262.18 238.1C262.36 237.9 262.54 237.79 262.71 237.82C262.87 237.84 263.01 238 263.13 238.24C263.2 237.98 263.3 237.8 263.46 237.75C263.62 237.69 263.81 237.76 264.03 237.92C263.97 237.66 263.98 237.45 264.1 237.33C264.21 237.21 264.42 237.18 264.68 237.22C264.51 237.01 264.42 236.83 264.47 236.66C264.51 236.5 264.68 236.38 264.94 236.29C264.69 236.19 264.53 236.07 264.49 235.9C264.45 235.74 264.54 235.56 264.73 235.36C264.46 235.38 264.26 235.35 264.15 235.22C264.04 235.09 264.04 234.89 264.11 234.63C263.89 234.78 263.69 234.84 263.53 234.78C263.37 234.71 263.28 234.53 263.22 234.27C263.09 234.51 262.94 234.65 262.78 234.67ZM268.12 229.08C266.12 231.41 264.39 233.55 264.1 234.63C265.04 234.02 266.53 231.71 268.12 229.08ZM268.54 228.6C268.51 228.58 268.49 228.55 268.46 228.53C268.34 228.72 268.23 228.9 268.12 229.08C268.26 228.92 268.4 228.76 268.54 228.6ZM270.86 232.32C268 233.45 265.48 234.54 264.72 235.36C265.84 235.25 268.23 233.9 270.86 232.32ZM271.41 232.1C271.4 232.07 271.38 232.04 271.37 232.01C271.2 232.11 271.03 232.21 270.86 232.31C271.04 232.24 271.23 232.17 271.41 232.1ZM271.78 236.45C268.73 236.13 265.99 235.92 264.93 236.3C265.97 236.72 268.71 236.64 271.78 236.45ZM272.31 236.51C272.31 236.48 272.31 236.45 272.31 236.42C272.14 236.43 271.96 236.44 271.78 236.45C271.96 236.47 272.14 236.49 272.31 236.51ZM270.67 240.54C268.12 238.83 265.79 237.38 264.68 237.22C265.4 238.08 267.87 239.28 270.67 240.54ZM271.06 240.8C271.08 240.78 271.09 240.75 271.1 240.73C270.96 240.67 270.81 240.6 270.67 240.54C270.8 240.63 270.93 240.72 271.06 240.8ZM267.79 243.65C266.32 240.95 264.94 238.58 264.03 237.92C264.27 239.01 265.9 241.23 267.79 243.65ZM267.99 244C268 243.99 268.02 243.98 268.04 243.96C267.96 243.86 267.87 243.75 267.79 243.64C267.86 243.76 267.92 243.88 267.99 244ZM263.8 245.06C263.75 241.98 263.63 239.24 263.13 238.24C262.83 239.32 263.25 242.03 263.8 245.06ZM263.8 245.43C263.82 245.43 263.84 245.42 263.86 245.42C263.84 245.3 263.82 245.18 263.8 245.06C263.8 245.18 263.8 245.3 263.8 245.43ZM259.6 244.45C260.99 241.71 262.16 239.22 262.18 238.1C261.42 238.92 260.52 241.51 259.6 244.45ZM259.44 244.77C259.46 244.78 259.48 244.79 259.5 244.8C259.53 244.68 259.57 244.56 259.6 244.45C259.55 244.56 259.49 244.66 259.44 244.77ZM256.17 241.96C258.68 240.18 260.86 238.52 261.41 237.54C260.35 237.91 258.35 239.79 256.17 241.96ZM255.85 242.19C255.87 242.21 255.89 242.22 255.9 242.24C255.99 242.15 256.08 242.06 256.17 241.96C256.07 242.04 255.96 242.12 255.85 242.19ZM254.29 238.17C257.34 237.75 260.04 237.3 260.98 236.68C259.87 236.52 257.23 237.26 254.29 238.17ZM253.85 238.23C253.86 238.25 253.86 238.28 253.87 238.3C254.01 238.26 254.15 238.21 254.29 238.17C254.15 238.19 254 238.21 253.85 238.23ZM254.39 233.93C257.28 234.98 259.89 235.84 261 235.73C260.1 235.07 257.41 234.49 254.39 233.93ZM253.91 233.76C253.91 233.79 253.9 233.82 253.89 233.84C254.06 233.87 254.23 233.9 254.39 233.93C254.23 233.88 254.07 233.82 253.91 233.76ZM256.45 230.23C258.52 232.5 260.43 234.47 261.47 234.89C260.97 233.89 258.87 232.13 256.45 230.23ZM256.05 229.81C256.03 229.83 256.01 229.85 255.99 229.88C256.14 230 256.3 230.11 256.45 230.23C256.32 230.09 256.19 229.95 256.05 229.81ZM259.98 227.91C260.76 230.88 261.54 233.51 262.27 234.36C262.29 233.25 261.24 230.71 259.98 227.91ZM259.83 227.3C259.79 227.31 259.76 227.32 259.73 227.34C259.81 227.53 259.9 227.72 259.98 227.91C259.93 227.71 259.88 227.5 259.83 227.3Z" id="atUbJTjpN"></path><radialGradient id="gradientk5clEYC6zq" gradientUnits="userSpaceOnUse" cx="262.85" cy="236.12" dx="413.15" dy="379.51" r="207.73"><stop style="stop-color: #ffffff;stop-opacity: 1" offset="0%"></stop><stop style="stop-color: #ffffff;stop-opacity: 0" offset="100%"></stop></radialGradient><path d="M262.97 239.75C260.94 239.75 259.3 238.11 259.3 236.08C259.3 234.06 260.94 232.41 262.97 232.41C265 232.41 266.64 234.05 266.64 236.08C266.64 238.11 265 239.75 262.97 239.75Z" id="iNRsdT1FB"></path><path d="M262.97 239.75C260.94 239.75 259.3 238.11 259.3 236.08C259.3 234.06 260.94 232.41 262.97 232.41C265 232.41 266.64 234.05 266.64 236.08C266.64 238.11 265 239.75 262.97 239.75Z" id="cWvvs6Olx"></path><path d="M259.97 240.78C260.44 241.48 260.25 242.44 259.55 242.91C258.85 243.38 257.9 243.19 257.43 242.49C256.96 241.79 257.15 240.84 257.85 240.37C257.85 240.37 257.85 240.37 257.85 240.37C258.95 240.18 259.66 240.32 259.97 240.78Z" id="f1kgGqADav"></path><linearGradient id="gradienta8gYtuZvT" gradientUnits="userSpaceOnUse" x1="257.77" y1="242.74" x2="259.23" y2="241"><stop style="stop-color: #ffffff;stop-opacity: 1" offset="0%"></stop><stop style="stop-color: #ffffff;stop-opacity: 0" offset="100%"></stop></linearGradient><path d="M263.36 235.42C262.37 234.75 261.88 233.74 262.27 233.16C262.27 233.16 262.27 233.16 262.27 233.16C262.66 232.57 263.78 232.64 264.77 233.31C265.77 233.97 266.26 234.99 265.87 235.57C265.87 235.57 265.87 235.57 265.87 235.57C265.48 236.15 264.36 236.09 263.36 235.42Z" id="bVqkzN0DA"></path><linearGradient id="gradientj8VrADVlE" gradientUnits="userSpaceOnUse" x1="264.86" y1="233.42" x2="263.69" y2="234.82"><stop style="stop-color: #ffffff;stop-opacity: 1" offset="0%"></stop><stop style="stop-color: #ffffff;stop-opacity: 0" offset="100%"></stop></linearGradient><path d="M265.21 234.2C263.28 232.94 262.43 230.81 263.32 229.45C264.2 228.09 266.49 228.01 268.43 229.27C270.36 230.53 271.21 232.65 270.32 234.01C270.32 234.01 270.32 234.01 270.32 234.01C268.2 234.97 266.5 235.03 265.21 234.2Z" id="b2xyfe4fJZ"></path><linearGradient id="gradientf4ebQMRW4" gradientUnits="userSpaceOnUse" x1="268.64" y1="229.57" x2="265.94" y2="232.77"><stop style="stop-color: #ffffff;stop-opacity: 1" offset="0%"></stop><stop style="stop-color: #ffffff;stop-opacity: 0" offset="100%"></stop></linearGradient><path d="M262.26 268.81C278.63 268.97 294.8 256.54 294.8 234.03C294.8 211.51 286.87 192.66 261.85 192.66C243.92 192.66 230.29 211.62 230.29 234.13C231.55 251.13 248.44 270.91 262.26 268.81ZM263.3 228.63C275.02 230.07 283.16 237.25 282.09 240.86C281.5 242.87 265.5 245.92 259.87 245.3C254.15 244.67 245.38 241.99 243.48 233.39C242.69 229.83 251.57 227.19 263.3 228.63Z" id="f54kPcue4N"></path><path d="M282.09 240.86C283.16 237.25 275.02 230.07 263.3 228.63C253.23 227.4 245.27 229.17 243.72 231.95C245.12 221.97 255.73 214.18 268.65 214.12C282.54 214.06 293.83 222.97 293.87 234.03C293.9 245.08 282.66 254.08 268.77 254.14C254.87 254.2 243.59 245.29 243.55 234.24C243.55 234.08 243.57 233.92 243.58 233.75C245.65 242.06 254.24 244.68 259.87 245.3C265.5 245.92 281.5 242.87 282.09 240.86Z" id="e5lTZtXvM"></path><radialGradient id="gradientd4qw2rM3mR" gradientUnits="userSpaceOnUse" cx="268.83" cy="233.35" dx="710.48" dy="-153.61" r="587.19"><stop style="stop-color: #844e35;stop-opacity: 1" offset="0%"></stop><stop style="stop-color: #844e35;stop-opacity: 0.3" offset="70%"></stop><stop style="stop-color: #93614a;stop-opacity: 0" offset="100%"></stop></radialGradient><path d="M263.3 228.63C275.02 230.07 283.16 237.25 282.09 240.86C281.5 242.87 265.5 245.92 259.87 245.3C254.15 244.67 245.38 241.99 243.48 233.39C242.69 229.83 251.57 227.19 263.3 228.63Z" id="b3pwVj7eoz"></path><radialGradient id="gradienta2hXf7Jt9F" gradientUnits="userSpaceOnUse" cx="255.66" cy="277.59" dx="789.26" dy="751.44" r="713.62"><stop style="stop-color: #000000;stop-opacity: 0" offset="95%"></stop><stop style="stop-color: #000000;stop-opacity: 0.2" offset="100%"></stop></radialGradient><path d="M265.67 223.86C269.42 224.73 273.42 225.86 276.69 227.97C279.72 229.74 282.18 231.87 284.49 234.51C282.39 231.85 280.16 229.64 277.28 227.85C273.73 225.64 269.84 224.27 265.8 223.3C258.64 221.55 250.64 221.94 244.1 225.43C250.66 222.34 258.68 222.06 265.67 223.86Z" id="c8sH5wdS9M"></path><path d="M253.57 224.7C256.2 224.58 261.48 224.9 264.07 225.37C269.33 226.31 278.5 229.24 282.28 236.57C283.45 238.82 282.4 240.4 282.09 240.74C282.56 236.96 274.55 230.22 263.3 228.88C251.57 227.49 242.69 230.04 243.48 233.49C245.38 241.83 254.15 244.43 259.87 245.04C266.26 245.73 278.09 242.64 279.65 242.31C276.53 243.88 267.92 245.57 264.42 245.9C263.26 246.01 260.93 246.06 259.76 246.03C250.49 245.79 243.91 241.08 241.47 234.71C239.91 230.62 241.62 227.74 245.06 226.37C246.44 225.82 251.4 224.81 253.57 224.7Z" id="e4jfPsks1Z"></path><path d="M342.32 228.63C330.59 230.07 322.46 237.25 323.52 240.86C324.12 242.87 340.11 245.92 345.75 245.3C351.46 244.67 360.23 241.99 362.14 233.39C362.93 229.83 354.04 227.19 342.32 228.63Z" id="g1BR3P4j1"></path><radialGradient id="gradienta6zi7i1iJL" gradientUnits="userSpaceOnUse" cx="344.22" cy="236.42" dx="713.68" dy="770.57" r="649.47"><stop style="stop-color: #ffffff;stop-opacity: 1" offset="0%"></stop><stop style="stop-color: #fcfdfd;stop-opacity: 1" offset="31.6%"></stop><stop style="stop-color: #f4f7f8;stop-opacity: 1" offset="50.5%"></stop><stop style="stop-color: #e5ecef;stop-opacity: 1" offset="66.10000000000001%"></stop><stop style="stop-color: #d8e2e7;stop-opacity: 1" offset="76%"></stop></radialGradient><path d="M343.27 245.44C338.11 245.44 333.92 241.25 333.92 236.08C333.92 236.08 333.92 236.08 333.92 236.08C333.92 230.91 338.11 226.73 343.27 226.73C348.44 226.72 352.63 230.91 352.63 236.08C352.63 236.08 352.63 236.08 352.63 236.08C349.83 242.32 346.72 245.44 343.27 245.44Z" id="b15sOIWrn"></path><path d="M342.11 226.84C342.16 227.05 342.2 227.27 342.25 227.48C342.24 227.26 342.23 227.04 342.22 226.83C342.19 226.83 342.15 226.84 342.11 226.84ZM343.05 234.28C343.32 233.19 342.86 230.49 342.24 227.47C342.35 230.55 342.53 233.29 343.05 234.28ZM342.73 234.78C342.57 234.84 342.38 234.77 342.16 234.62C342.22 234.88 342.21 235.08 342.1 235.21C341.99 235.33 341.79 235.36 341.52 235.33C341.69 235.53 341.79 235.72 341.75 235.88C341.7 236.04 341.54 236.16 341.29 236.26C341.54 236.35 341.7 236.48 341.74 236.64C341.78 236.8 341.69 236.99 341.52 237.19C341.78 237.15 341.98 237.19 342.09 237.32C342.2 237.44 342.21 237.65 342.15 237.91C342.37 237.75 342.56 237.69 342.72 237.75C342.88 237.81 342.98 237.99 343.04 238.25C343.16 238.01 343.31 237.86 343.47 237.84C343.64 237.82 343.81 237.94 343.99 238.14C343.99 237.87 344.04 237.67 344.19 237.58C344.32 237.48 344.53 237.5 344.78 237.6C344.66 237.36 344.61 237.16 344.69 237.01C344.77 236.86 344.96 236.78 345.23 236.75C345.01 236.59 344.87 236.44 344.88 236.27C344.88 236.1 345.01 235.94 345.23 235.79C344.96 235.76 344.78 235.68 344.7 235.53C344.62 235.38 344.66 235.18 344.79 234.94C344.54 235.04 344.33 235.06 344.19 234.96C344.06 234.87 344 234.67 344 234.4C343.83 234.6 343.65 234.71 343.48 234.69C343.32 234.67 343.18 234.52 343.05 234.28C342.99 234.54 342.88 234.72 342.73 234.78ZM346.45 228C345.12 230.77 344 233.28 344 234.4C344.75 233.56 345.59 230.95 346.45 228ZM346.72 227.42C346.69 227.41 346.66 227.39 346.63 227.38C346.57 227.59 346.51 227.8 346.45 228C346.54 227.81 346.63 227.61 346.72 227.42ZM349.93 230.41C347.46 232.25 345.31 233.95 344.79 234.94C345.84 234.55 347.8 232.63 349.93 230.41ZM350.41 230.06C350.38 230.03 350.36 230.01 350.34 229.99C350.2 230.13 350.07 230.27 349.93 230.41C350.09 230.3 350.25 230.18 350.41 230.06ZM351.89 234.17C348.85 234.65 346.15 235.16 345.23 235.79C346.34 235.93 348.97 235.14 351.89 234.17ZM352.41 234.09C352.41 234.06 352.4 234.03 352.39 234C352.23 234.06 352.05 234.11 351.89 234.17C352.06 234.15 352.24 234.12 352.41 234.09ZM351.87 238.41C348.96 237.42 346.34 236.62 345.23 236.75C346.15 237.39 348.84 237.91 351.87 238.41ZM352.32 238.56C352.33 238.53 352.33 238.51 352.34 238.48C352.19 238.46 352.03 238.43 351.87 238.41C352.02 238.46 352.17 238.51 352.32 238.56ZM349.89 242.15C347.78 239.92 345.83 237.99 344.78 237.59C345.29 238.59 347.44 240.3 349.89 242.15ZM350.17 242.45C350.19 242.43 350.21 242.41 350.22 242.4C350.11 242.31 350 242.23 349.9 242.15C349.99 242.25 350.08 242.35 350.17 242.45ZM346.4 244.55C345.56 241.59 344.73 238.97 343.99 238.14C343.99 239.26 345.09 241.77 346.4 244.55ZM346.5 244.91C346.53 244.9 346.54 244.89 346.56 244.89C346.51 244.77 346.45 244.66 346.4 244.55C346.44 244.67 346.47 244.79 346.5 244.91ZM342.19 245.05C342.82 242.04 343.31 239.34 343.04 238.25C342.52 239.24 342.32 241.97 342.19 245.05ZM342.12 245.4C342.14 245.41 342.16 245.41 342.18 245.41C342.19 245.29 342.19 245.17 342.19 245.05C342.17 245.16 342.15 245.28 342.12 245.4ZM338.24 243.53C340.19 241.16 341.88 238.99 342.15 237.9C341.22 238.54 339.78 240.87 338.24 243.53ZM337.99 243.83C338.01 243.85 338.02 243.86 338.04 243.87C338.11 243.76 338.17 243.65 338.24 243.53C338.16 243.63 338.07 243.74 337.99 243.83ZM335.44 240.35C338.27 239.16 340.77 238.03 341.52 237.19C340.4 237.32 338.04 238.71 335.44 240.35ZM335.03 240.53C335.04 240.55 335.05 240.57 335.07 240.59C335.19 240.51 335.31 240.43 335.44 240.36C335.3 240.41 335.17 240.47 335.03 240.53ZM334.44 236.24C337.5 236.5 340.24 236.65 341.29 236.26C340.24 235.86 337.5 236 334.44 236.24ZM333.93 236.2C333.93 236.23 333.93 236.25 333.93 236.28C334.1 236.27 334.27 236.25 334.44 236.24C334.27 236.23 334.1 236.21 333.93 236.2ZM335.47 232.13C338.05 233.79 340.41 235.2 341.52 235.33C340.78 234.49 338.29 233.34 335.47 232.13ZM334.98 231.82C334.96 231.85 334.95 231.88 334.93 231.91C335.11 231.98 335.29 232.06 335.47 232.13C335.3 232.03 335.14 231.92 334.98 231.82ZM338.28 228.97C339.8 231.64 341.23 233.98 342.16 234.62C341.89 233.53 340.22 231.35 338.28 228.97ZM337.97 228.42C337.94 228.44 337.91 228.46 337.88 228.48C338.02 228.65 338.15 228.81 338.28 228.97C338.18 228.79 338.07 228.61 337.97 228.42Z" id="asghUC8cI"></path><radialGradient id="gradientbi2nFOBcA" gradientUnits="userSpaceOnUse" cx="343.15" cy="236.11" dx="523.34" dy="336.67" r="206.35"><stop style="stop-color: #ffffff;stop-opacity: 1" offset="0%"></stop><stop style="stop-color: #ffffff;stop-opacity: 0" offset="100%"></stop></radialGradient><path d="M344.54 226.84C344.53 227.06 344.52 227.28 344.51 227.49C344.55 227.28 344.6 227.07 344.65 226.86C344.62 226.86 344.58 226.85 344.54 226.84ZM343.52 234.27C344.07 233.29 344.32 230.56 344.51 227.49C343.81 230.49 343.28 233.18 343.52 234.27ZM343.08 234.67C342.92 234.68 342.75 234.57 342.57 234.36C342.57 234.63 342.51 234.83 342.36 234.92C342.22 235.01 342.02 234.99 341.77 234.89C341.89 235.13 341.93 235.33 341.85 235.48C341.76 235.62 341.57 235.7 341.31 235.72C341.52 235.88 341.65 236.04 341.65 236.21C341.64 236.37 341.51 236.53 341.29 236.68C341.55 236.72 341.74 236.8 341.81 236.95C341.89 237.1 341.84 237.3 341.71 237.54C341.97 237.45 342.17 237.43 342.31 237.53C342.44 237.63 342.49 237.83 342.49 238.1C342.67 237.9 342.84 237.79 343.01 237.82C343.18 237.84 343.31 238 343.43 238.24C343.5 237.98 343.61 237.8 343.77 237.75C343.93 237.69 344.12 237.76 344.34 237.92C344.28 237.66 344.29 237.45 344.41 237.33C344.52 237.21 344.72 237.18 344.99 237.22C344.82 237.01 344.73 236.83 344.78 236.66C344.82 236.5 344.99 236.38 345.24 236.29C344.99 236.19 344.83 236.07 344.79 235.9C344.76 235.74 344.85 235.56 345.03 235.36C344.76 235.38 344.56 235.35 344.46 235.22C344.35 235.09 344.34 234.89 344.41 234.63C344.19 234.78 343.99 234.84 343.84 234.78C343.68 234.71 343.58 234.53 343.52 234.27C343.39 234.51 343.25 234.65 343.08 234.67ZM348.43 229.08C346.43 231.41 344.7 233.55 344.41 234.63C345.35 234.02 346.84 231.71 348.43 229.08ZM348.85 228.6C348.82 228.58 348.79 228.55 348.76 228.53C348.65 228.72 348.54 228.9 348.43 229.08C348.57 228.92 348.71 228.76 348.85 228.6ZM351.17 232.32C348.31 233.45 345.79 234.54 345.03 235.36C346.14 235.25 348.54 233.9 351.17 232.32ZM351.72 232.1C351.7 232.07 351.69 232.04 351.68 232.01C351.51 232.11 351.34 232.21 351.17 232.31C351.35 232.24 351.53 232.17 351.72 232.1ZM352.09 236.45C349.03 236.13 346.29 235.92 345.24 236.3C346.27 236.72 349.02 236.64 352.09 236.45ZM352.62 236.51C352.62 236.48 352.62 236.45 352.62 236.42C352.44 236.43 352.26 236.44 352.09 236.45C352.26 236.47 352.44 236.49 352.62 236.51ZM350.98 240.54C348.42 238.83 346.1 237.38 344.99 237.22C345.71 238.08 348.18 239.28 350.98 240.54ZM351.37 240.8C351.38 240.78 351.39 240.75 351.4 240.73C351.27 240.67 351.12 240.6 350.98 240.54C351.1 240.63 351.24 240.72 351.37 240.8ZM348.1 243.65C346.63 240.95 345.24 238.58 344.33 237.92C344.58 239.01 346.2 241.23 348.1 243.65ZM348.29 244C348.31 243.99 348.33 243.98 348.35 243.96C348.27 243.86 348.18 243.75 348.1 243.64C348.16 243.76 348.23 243.88 348.29 244ZM344.1 245.06C344.06 241.98 343.93 239.24 343.43 238.24C343.14 239.32 343.55 242.03 344.1 245.06ZM344.11 245.43C344.13 245.43 344.15 245.42 344.17 245.42C344.15 245.3 344.13 245.18 344.1 245.06C344.1 245.18 344.11 245.3 344.11 245.43ZM339.91 244.45C341.3 241.71 342.46 239.22 342.48 238.1C341.72 238.92 340.83 241.51 339.91 244.45ZM339.75 244.77C339.77 244.78 339.78 244.79 339.8 244.8C339.84 244.68 339.87 244.56 339.91 244.45C339.85 244.56 339.8 244.66 339.75 244.77ZM336.48 241.96C338.98 240.18 341.17 238.52 341.71 237.54C340.65 237.91 338.66 239.79 336.48 241.96ZM336.16 242.19C336.18 242.21 336.19 242.22 336.21 242.24C336.29 242.15 336.39 242.06 336.48 241.96C336.38 242.04 336.26 242.12 336.16 242.19ZM334.6 238.17C337.65 237.75 340.35 237.3 341.29 236.68C340.18 236.52 337.54 237.26 334.6 238.17ZM334.16 238.23C334.16 238.25 334.17 238.28 334.18 238.3C334.32 238.26 334.46 238.21 334.6 238.17C334.45 238.19 334.31 238.21 334.16 238.23ZM334.69 233.93C337.59 234.98 340.19 235.84 341.31 235.73C340.4 235.07 337.72 234.49 334.69 233.93ZM334.22 233.76C334.21 233.79 334.2 233.82 334.2 233.84C334.36 233.87 334.53 233.9 334.69 233.93C334.54 233.88 334.37 233.82 334.22 233.76ZM336.75 230.23C338.82 232.5 340.73 234.47 341.77 234.89C341.28 233.89 339.17 232.13 336.75 230.23ZM336.36 229.81C336.34 229.83 336.32 229.85 336.29 229.88C336.45 230 336.6 230.11 336.75 230.23C336.62 230.09 336.49 229.95 336.36 229.81ZM340.29 227.91C341.07 230.88 341.85 233.51 342.57 234.36C342.6 233.25 341.55 230.71 340.29 227.91ZM340.13 227.3C340.1 227.31 340.06 227.32 340.03 227.34C340.12 227.53 340.21 227.72 340.29 227.91C340.24 227.71 340.18 227.5 340.13 227.3Z" id="a9CGYFoXP"></path><radialGradient id="gradientbW1TdLKXY" gradientUnits="userSpaceOnUse" cx="343.16" cy="236.12" dx="493.46" dy="379.51" r="207.72"><stop style="stop-color: #ffffff;stop-opacity: 1" offset="0%"></stop><stop style="stop-color: #ffffff;stop-opacity: 0" offset="100%"></stop></radialGradient><path d="M343.27 239.75C341.25 239.75 339.6 238.11 339.6 236.08C339.6 234.06 341.25 232.41 343.27 232.41C345.3 232.41 346.94 234.05 346.94 236.08C346.94 238.11 345.3 239.75 343.27 239.75Z" id="cyRYlt8MR"></path><path d="M343.27 239.75C341.25 239.75 339.6 238.11 339.6 236.08C339.6 234.06 341.25 232.41 343.27 232.41C345.3 232.41 346.94 234.05 346.94 236.08C346.94 238.11 345.3 239.75 343.27 239.75Z" id="d9iGj6LoF"></path><path d="M340.27 240.78C340.74 241.48 340.56 242.44 339.86 242.91C339.15 243.38 338.2 243.19 337.74 242.49C337.27 241.79 337.45 240.84 338.15 240.37C338.15 240.37 338.15 240.37 338.15 240.37C339.26 240.18 339.96 240.32 340.27 240.78Z" id="e1T17RkWyK"></path><linearGradient id="gradientas1YU0lWn" gradientUnits="userSpaceOnUse" x1="338.08" y1="242.74" x2="339.54" y2="241"><stop style="stop-color: #ffffff;stop-opacity: 1" offset="0%"></stop><stop style="stop-color: #ffffff;stop-opacity: 0" offset="100%"></stop></linearGradient><path d="M343.67 235.42C342.67 234.75 342.19 233.74 342.58 233.16C342.58 233.16 342.58 233.16 342.58 233.16C342.97 232.57 344.09 232.64 345.08 233.31C346.08 233.97 346.56 234.99 346.17 235.57C346.17 235.57 346.17 235.57 346.17 235.57C345.78 236.15 344.66 236.09 343.67 235.42Z" id="n4LYXlQF9"></path><linearGradient id="gradientc18QpcL5Wm" gradientUnits="userSpaceOnUse" x1="345.16" y1="233.42" x2="343.99" y2="234.82"><stop style="stop-color: #ffffff;stop-opacity: 1" offset="0%"></stop><stop style="stop-color: #ffffff;stop-opacity: 0" offset="100%"></stop></linearGradient><path d="M345.52 234.2C343.59 232.94 342.74 230.81 343.62 229.45C344.51 228.09 346.8 228.01 348.73 229.27C350.66 230.53 351.51 232.65 350.63 234.01C350.63 234.01 350.63 234.01 350.63 234.01C348.51 234.97 346.81 235.03 345.52 234.2Z" id="a3vBE6llVP"></path><linearGradient id="gradientbcX9sfX7q" gradientUnits="userSpaceOnUse" x1="348.94" y1="229.57" x2="346.25" y2="232.77"><stop style="stop-color: #ffffff;stop-opacity: 1" offset="0%"></stop><stop style="stop-color: #ffffff;stop-opacity: 0" offset="100%"></stop></linearGradient><path d="M310.82 234.02C310.82 256.54 326.98 268.97 343.35 268.8C357.18 270.9 374.06 251.13 375.33 234.13C375.33 211.62 361.69 192.66 343.76 192.66C318.75 192.66 310.82 211.51 310.82 234.02ZM323.52 240.86C322.45 237.25 330.59 230.07 342.32 228.63C354.04 227.19 362.93 229.83 362.14 233.39C360.23 241.99 351.46 244.67 345.75 245.3C340.11 245.92 324.12 242.87 323.52 240.86Z" id="b2vRRrNaIy"></path><path d="M323.52 240.86C322.45 237.25 330.59 230.07 342.32 228.63C352.39 227.4 360.35 229.17 361.9 231.95C360.5 221.97 349.89 214.18 336.97 214.12C323.07 214.06 311.79 222.97 311.75 234.03C311.72 245.08 322.95 254.08 336.85 254.14C350.75 254.2 362.03 245.29 362.07 234.24C362.07 234.08 362.04 233.92 362.04 233.75C359.96 242.06 351.38 244.68 345.75 245.3C340.11 245.92 324.12 242.87 323.52 240.86Z" id="fK6TwdGCL"></path><radialGradient id="gradientcd7JDPHNG" gradientUnits="userSpaceOnUse" cx="336.78" cy="233.35" dx="-105.49" dy="-153.6" r="587.65"><stop style="stop-color: #844e35;stop-opacity: 1" offset="0%"></stop><stop style="stop-color: #844e35;stop-opacity: 0.3" offset="70%"></stop><stop style="stop-color: #93614a;stop-opacity: 0" offset="100%"></stop></radialGradient><path d="M342.32 228.63C330.59 230.07 322.46 237.25 323.52 240.86C324.12 242.87 340.11 245.92 345.75 245.3C351.46 244.67 360.23 241.99 362.14 233.39C362.93 229.83 354.04 227.19 342.32 228.63Z" id="geSvgmhdZ"></path><radialGradient id="gradientc2o0E5GD8J" gradientUnits="userSpaceOnUse" cx="349.95" cy="277.59" dx="-183.02" dy="751.44" r="713.16"><stop style="stop-color: #000000;stop-opacity: 0" offset="95%"></stop><stop style="stop-color: #000000;stop-opacity: 0.2" offset="100%"></stop></radialGradient><path d="M339.94 223.86C336.19 224.73 332.2 225.86 328.93 227.97C325.9 229.74 323.43 231.87 321.13 234.51C323.22 231.85 325.45 229.64 328.34 227.85C331.89 225.64 335.77 224.27 339.82 223.3C346.97 221.55 354.98 221.94 361.52 225.43C354.96 222.34 346.94 222.06 339.94 223.86Z" id="d1z4jI2UQH"></path><path d="M352.05 224.7C349.41 224.58 344.13 224.9 341.54 225.37C336.28 226.31 327.12 229.24 323.33 236.57C322.17 238.82 323.22 240.4 323.52 240.74C323.06 236.96 331.07 230.22 342.32 228.88C354.04 227.49 362.93 230.04 362.14 233.49C360.23 241.83 351.46 244.43 345.75 245.04C339.36 245.73 327.53 242.64 325.97 242.31C329.09 243.88 337.7 245.57 341.2 245.9C342.36 246.01 344.69 246.06 345.85 246.03C355.13 245.79 361.71 241.08 364.14 234.71C365.71 230.62 364 227.74 360.55 226.37C359.18 225.82 354.21 224.81 352.05 224.7Z" id="cxKzy1o8A"></path><path d="M303.22 346.4C267.91 346.46 239.24 317.91 239.19 282.63C239.13 247.35 267.71 218.59 303.02 218.54C338.33 218.48 367 247.15 367.05 282.43C367.11 317.71 338.53 346.35 303.22 346.4Z" id="e37zSanEEa"></path><radialGradient id="gradientf6dsas6eB" gradientUnits="userSpaceOnUse" cx="303.12" cy="282.47" dx="770.92" dy="728.44" r="646.32"><stop style="stop-color: #a27662;stop-opacity: 0.5" offset="0%"></stop><stop style="stop-color: #93614a;stop-opacity: 0" offset="90%"></stop></radialGradient><path d="M303.12 247.39C270.83 247.39 244.64 221.21 244.64 188.91C244.64 156.62 270.83 130.44 303.12 130.44C335.41 130.44 361.59 156.62 361.59 188.91C361.59 221.21 335.41 247.39 303.12 247.39Z" id="nhWORkQ9z"></path><radialGradient id="gradientclbeFCPFo" gradientUnits="userSpaceOnUse" cx="303.12" cy="188.91" dx="770.92" dy="728.44" r="714.09"><stop style="stop-color: #a27662;stop-opacity: 0.5" offset="0%"></stop><stop style="stop-color: #93614a;stop-opacity: 0" offset="90%"></stop></radialGradient><path d="M279.09 215.3C280.41 215.56 288.94 217.7 287.37 220.71C286.62 222.15 284.19 221.98 282.84 221.96C261.5 221.56 251.12 206.37 231.39 220.39C246.91 204.84 257.53 211.17 279.09 215.3Z" id="a5zJuKf5F"></path><path d="M327.15 215.3C325.83 215.56 317.3 217.7 318.87 220.71C319.62 222.15 322.04 221.98 323.4 221.96C344.74 221.56 355.12 206.37 374.85 220.39C359.33 204.84 348.71 211.17 327.15 215.3Z" id="a15niSewAJ"></path><path d="M306.03 282.8C303.78 269.55 303.1 246.61 303.1 246.61C303.1 246.61 301.37 273.48 299.9 282.8C299.54 285.07 301.97 286.2 303.1 286.2C304.09 286.2 306.41 285.04 306.03 282.8Z" id="adV4Vkzf6"></path><path d="M298.17 242.88L298.17 242.88L298.17 242.88L298.17 242.88Z" id="dKIiLW542"></path><path d="M298.17 242.88L298.17 242.88L298.17 242.88L298.17 242.88Z" id="c2zRdQXuDq"></path><path d="M208.68 214.34C208.69 214.34 208.79 214.32 208.81 214.32C207.74 211.68 203.88 190.83 203.84 190.61C199.9 162.9 211.63 161.32 211.39 149.76C216.32 152.23 221.12 151 225.45 147.63C220.9 145.29 222.34 144.92 216.29 141.24C220.55 140.51 223.04 141.5 226.66 141.95C223.57 138.86 217.5 132.55 213.55 133.39C213.53 133.33 213.32 132.89 213.3 132.83C219 128.38 226.62 137.65 233.5 135.14C233.7 109.61 271.02 104.31 280.11 100.52C292.2 95.91 304.83 85.79 313.72 84.89C308.69 89.94 305.61 98.06 305.38 104.16C312.7 97.16 313.22 97.37 324.32 85.04C324.32 94.96 321.58 96.21 318.01 102.03C327.69 95.68 339.77 77.88 358.37 75.15C358.39 75.21 358.55 75.67 358.57 75.73C351.87 79.68 346.68 86.34 343.14 95.55C346.65 91.3 351.63 86.69 357.15 85.85C357.17 85.91 357.33 86.37 357.35 86.43C353.9 88.49 347.13 95.38 345.59 106.91C352.42 99.28 363.28 92.96 370.74 90.57C370.77 90.63 371.01 91.06 371.04 91.11C364.19 96.68 361.44 106.44 359.89 114.73C364.7 107.59 367.49 105.96 373.53 102.96C371.59 105.87 371.71 105.36 370.17 108.52C373.9 118.07 386.25 118.44 388.36 135.12C390.9 132.9 391.91 132.34 394.83 130.3C394.88 130.34 395.23 130.68 395.27 130.72C393.08 134.13 391.27 140.17 390.06 144.21C394.4 140.9 401.09 138.46 405.8 136.76C405.84 136.81 406.1 137.22 406.13 137.28C402.15 141.32 397.32 147.48 396.52 154.17C398.08 153.25 398.16 153.35 400.19 151.88C400.19 156.69 400.35 156.07 400.39 158.28C402.35 156.53 402.65 156.28 403.94 154.88C403.65 205.35 401.06 195.29 394.08 230.46C392.86 236.64 390.7 247.43 389.31 252.61C388.37 252.77 380.82 254.07 379.88 254.23C382.8 219.31 379.73 226.92 381.85 204.95C384.99 172.55 358.77 145.99 324.12 154.68C317.11 156.44 289.13 156.44 282.12 154.68C243.84 145.07 230.05 167.44 225.94 206.57C223.93 225.78 223.44 219.3 226.36 254.23C225.76 254.13 222.74 253.61 217.32 252.68C213.44 235.49 210.56 222.72 208.68 214.34Z" id="ahQPXhsgG"></path><path d="M400.19 151.88C398.16 153.35 398.08 153.25 396.52 154.17C397.32 147.48 402.15 141.32 406.13 137.28C406.1 137.23 405.83 136.82 405.8 136.77C401.09 138.47 394.4 140.91 390.06 144.22C391.26 140.17 393.07 134.13 395.27 130.72C395.23 130.68 394.87 130.34 394.83 130.3C391.91 132.34 390.9 132.9 388.36 135.12C386.25 118.44 373.9 118.07 370.17 108.52C371.71 105.36 371.59 105.87 373.53 102.96C367.49 105.96 364.69 107.59 359.89 114.73C361.44 106.44 364.19 96.68 371.03 91.11C371.01 91.06 370.77 90.63 370.74 90.57C363.28 92.96 352.42 99.29 345.58 106.92C347.13 95.38 353.9 88.49 357.35 86.43C357.33 86.37 357.17 85.91 357.15 85.85C351.63 86.69 346.65 91.3 343.13 95.55C346.68 86.34 351.87 79.68 358.57 75.73C358.55 75.68 358.38 75.21 358.36 75.16C339.77 77.88 327.69 95.68 318.01 102.03C321.57 96.21 324.32 94.96 324.32 85.04C313.22 97.37 312.7 97.17 305.38 104.16C305.6 98.07 308.68 89.94 313.71 84.89C304.83 85.8 292.2 95.91 280.11 100.52C271.02 104.31 233.7 109.61 233.5 135.14C226.62 137.66 219 128.38 213.3 132.84C213.32 132.89 213.53 133.33 213.55 133.39C217.5 132.55 223.57 138.86 226.66 141.95C223.04 141.5 220.55 140.51 216.29 141.24C222.34 144.92 220.9 145.29 225.45 147.63C221.12 151 216.32 152.23 211.39 149.76C211.63 161.32 199.9 162.9 203.84 190.61C203.88 190.83 207.74 211.68 208.81 214.32C208.79 214.32 208.69 214.34 208.68 214.35C211.5 226.9 213.54 238.94 217.32 252.68C217.32 252.68 217.35 252.69 217.36 252.69C216.33 227.05 200.17 190.6 209.65 167.25C210.89 164.21 215.67 156.17 215.67 156.17C215.67 156.17 230.68 154.2 231.39 148.37C231.39 148.37 228.27 146.81 226.71 145.25C229.83 146.81 229.83 142.13 232.95 143.69C232.95 140.57 228.27 142.13 228.27 139.01C231.39 139.01 234.51 139.01 237.63 142.13C236.07 134.34 237.63 126.54 243.86 121.86C259.46 109.39 279.73 110.95 295.32 98.47C293.76 106.27 292.2 114.06 292.2 121.86C301.56 117.18 304.68 107.83 312.48 101.59C314.03 107.83 310.92 115.62 310.92 121.86C315.59 110.95 321.83 100.03 335.87 96.91C329.63 103.15 329.63 112.51 329.63 120.3C329.63 114.06 335.87 110.95 337.42 106.27C337.42 112.51 337.42 118.74 337.42 124.98C340.54 115.62 346.78 110.95 354.58 107.83C348.34 114.06 349.9 120.3 348.34 128.1C353.02 123.42 359.26 121.86 363.93 117.18C368.61 126.54 365.49 134.34 365.49 143.69C367.05 135.9 374.85 131.22 379.53 124.98C381.09 132.78 381.09 140.57 379.53 148.37C381.09 143.69 384.2 140.57 385.76 135.9C385.76 143.47 384.72 150.03 382.68 156.39C384.63 154.12 387.83 153.1 388.88 149.93C388.88 156.67 388.88 162.25 388.88 168.68C389.79 166.82 392.45 166.18 393.56 163.96C392.23 169.28 393.16 173.48 393.47 178.47C394.05 175.41 396.99 173.54 398.05 170.72C398.12 169.51 398.18 168.29 398.24 167.08C398.59 168.5 398.45 169.68 398.05 170.72C396.63 198.43 394.01 226.1 388.3 252.79C388.4 252.77 389.21 252.63 389.31 252.61C390.7 247.43 392.86 236.64 394.08 230.46C401.06 195.29 403.65 205.35 403.93 154.89C402.65 156.29 402.34 156.53 400.38 158.29C400.35 156.07 400.19 156.69 400.19 151.88Z" id="c3kfmhxoB7"></path><path d="M391.58 142.05C392.18 140.48 395 131.65 398.03 127.93C393.37 130.01 390.67 132.24 389.12 133.41C389.12 131.8 388.49 129.94 388.2 128.98C387.9 128.18 387.65 127.24 386.21 124.89C378.15 113.52 377.65 118.28 371.04 109.57C372.25 106.74 373.99 104 376.17 101.72C370.08 102.59 366.87 104.96 363.01 108.76C362.95 108.82 362.9 108.88 362.86 108.94C365.27 99.39 370.01 91.11 379.32 88C367.81 87.58 353.55 96.1 346.39 104.59C349.48 94.64 353.63 89.9 359.8 85.49C355.36 84.83 351.01 86.65 347.57 89.51C351.54 82.66 357.42 77.2 362.16 74.65C361.48 74.64 360.69 74.59 359.82 74.65C358.61 74.34 351.27 75.54 348.65 76.66C335.66 81.74 326.21 93.54 322.16 97.37C325.15 92.54 325.29 89.11 324.75 84.09C323.73 84.96 306.64 101.32 306.43 101.54C307.64 94.82 309.93 90.72 314.25 84.71C306.54 83.27 287.23 95.96 275.25 99.35C262.71 102.75 231.59 109.84 233.01 134.75C226.31 136.03 216.51 125.27 211.37 134.3C215.49 131.85 220.96 137.74 224.76 141.11C223.2 140.86 217.99 139.63 215.47 141.31C218.42 142.46 221 145.89 224.65 147.71C224.7 147.72 224.75 147.74 224.79 147.77C221.46 149.53 217.52 150.94 213.89 149.94C213.35 149.78 212.99 149.69 212.99 149.67C212.57 149.48 212.12 149.3 211.63 149.08C211.63 149.08 211.63 149.08 211.62 149.08C211.61 149.07 211.6 149.06 211.6 149.06C211.4 148.95 211.2 148.85 210.98 148.74C212.06 157.48 198.79 164.57 200.25 183.07C200.85 194.46 207.97 229.09 216.91 252.57C216.99 252.59 217.59 252.77 217.67 252.79C213.94 239.34 211.78 226.69 208.98 214.27C208.74 214.27 204.19 190.81 204.15 190.56C200.24 163.06 211.94 161.07 211.71 150.26C216.58 152.7 221.9 150.94 226.03 147.57C221.16 145.15 222.2 144.47 217.17 141.41C220.54 140.82 224.66 142.16 227.49 142.34C223.83 138.68 217.67 132.19 213.49 133.08C219.05 128.74 226.74 138.18 233.81 135.36C233.81 109.81 270.8 104.74 280.23 100.8C291.57 96.49 305.62 86.02 312.88 85.29C309.07 89.12 305.05 97.61 305.05 104.9C312.59 97.67 313.33 97.71 324.01 85.85C324.01 95.22 320.51 96.9 317.1 102.95C327.11 97.19 339.21 78.27 358.41 75.46C350.37 80.2 345.26 88.44 342.18 97.25C345.85 92.48 351.22 87.06 357.19 86.16C354.06 88.03 346.5 95.17 345.16 107.88C351.93 99.91 363.22 93.31 370.84 90.87C363.66 96.71 360.91 107.04 359.31 116.16C361.95 112.15 364.55 108.52 368.62 105.96C368.64 105.95 368.67 105.93 368.69 105.93C370.29 104.84 369.87 105.14 372.62 103.76C371.57 105.32 371.48 105.12 369.83 108.5C373.61 118.45 386.24 118.5 388.12 135.75C391.01 133.18 391.92 132.71 395.01 130.55C392.6 134.29 390.67 141.11 389.47 145.09C394 141.21 402.38 138.33 405.91 137.06C401.23 141.81 396.69 148.12 396.15 154.77C397.1 154.13 398.32 153.62 399.87 152.49C399.87 156.74 400.08 156.17 400.08 158.98C400.9 158.23 402.76 156.62 403.62 155.69C403.31 205.14 400.69 195.55 393.78 230.4C391.19 243.46 389.83 249.5 388.97 252.67C389.04 252.65 389.57 252.55 389.64 252.53C395.23 235.77 406.38 197.89 405.88 178.28C405.83 170.95 404.23 155.67 404.15 154.11C404.11 154.14 400.9 157.19 400.86 157.19C400.86 156.39 400.53 153 400.53 151.15C399.98 151.57 398.82 152.36 397.27 153.27C399.42 146.78 402.69 142.75 408.81 135.42C401.09 136.72 395.7 139.22 391.58 142.05Z" id="bBm3GATjt"></path><path d="M298.17 242.88L298.17 242.88L298.17 242.88L298.17 242.88Z" id="b1N6DulxP9"></path><path d="M204.91 223.57C200.63 225.03 199.78 229.8 199.09 234.01C198.17 239.61 199.82 250.68 201.26 254.69C202.63 258.53 206.77 265.96 209.46 268.79C212.79 272.26 216.91 283.33 217.56 284.48C218.59 286.29 219.96 289.02 223.99 288.68C228.44 288.3 231.14 285.79 233.12 285.37C238.02 284.33 226.06 244.45 220.48 234.49C218.33 230.67 211.68 221.27 204.91 223.57Z" id="cxadqeNqi"></path><path d="M216.33 253.78C216.52 252.44 216.7 251.17 216.59 250.27C216.17 246.91 213.82 240.53 212.29 237.07C210.52 233.08 207.67 228.07 204.08 226.78C202.6 226.24 201.63 226.88 201.06 227.53C200.65 228.01 200.56 228.57 200.69 228.63C200.83 228.7 201.14 228.24 201.58 227.8C201.95 227.44 202.49 227.14 203.22 227.2C202.93 228.87 201.4 237.93 202.06 244.11C202.58 248.97 204.55 252.6 204.85 253.14C204.9 253.71 204.97 254.27 205.08 254.82C206.53 261.91 212.84 269.97 215.03 272.61C215.43 273.1 215.86 273.38 215.96 273.27C216.06 273.15 215.82 272.66 215.41 272.18C213.25 269.56 207.01 261.52 205.6 254.68C204.12 247.42 209.22 236.66 210.36 234.39C210.94 235.45 211.43 236.48 211.81 237.34C212.1 238.01 212.43 238.8 212.77 239.64C212.1 240.83 207.42 249.5 209.13 256.43C209.76 258.99 212.61 262.29 214.5 263.19C215.54 263.69 215.94 264.43 216.39 265.29C216.91 266.29 217.51 267.42 219.24 268.24C219.59 268.41 219.91 268.48 220.19 268.48C220.68 268.48 221.05 268.27 221.32 268.02C221.35 268.46 221.35 269.02 221.33 269.53C221.32 270.21 221.4 270.75 221.55 270.77C221.69 270.78 221.85 270.25 221.87 269.58C221.9 268.76 221.89 267.75 221.76 267.26C221.37 265.83 220.19 264.22 218.93 262.51C217.7 260.82 216.43 259.09 216.1 257.68C215.9 256.78 216.11 255.25 216.33 253.78ZM206.59 229.13C207.91 230.41 209.08 232.12 210.03 233.8C209.34 235.14 204.95 243.91 204.8 251.4C201.41 240.27 205.83 230.66 206.59 229.13ZM216.85 264.98C216.39 264.11 215.92 263.21 214.71 262.63C214.45 262.51 214.17 262.32 213.87 262.1C209.99 252.33 214.29 248.06 215.37 247.19C215.7 248.38 215.95 249.48 216.06 250.35C216.15 251.16 215.97 252.44 215.8 253.68C215.57 255.22 215.35 256.81 215.58 257.84C215.93 259.37 217.25 261.16 218.52 262.89C219.65 264.43 220.81 266.01 221.2 267.31C221.03 267.56 220.5 268.18 219.45 267.68C217.88 266.94 217.36 265.94 216.85 264.98Z" id="bY3wi7h0f"></path></defs><g><g><g><use xlink:href="#c4oBfiXm2q" opacity="1" fill="#7510f7" fill-opacity="1"></use></g><g><use xlink:href="#a3eaPPWEQ" opacity="1" fill="#2a232b" fill-opacity="1"></use><g><use xlink:href="#a3eaPPWEQ" opacity="1" fill-opacity="0" stroke="#000000" stroke-width="NaN" stroke-opacity="0"></use></g></g><g><use xlink:href="#c6jwxJ56aD" opacity="1" fill="#8b573f" fill-opacity="1"></use><g><use xlink:href="#c6jwxJ56aD" opacity="1" fill-opacity="0" stroke="#000000" stroke-width="NaN" stroke-opacity="0"></use></g></g><g><use xlink:href="#a1P51sVsuQ" opacity="1" fill="#652e15" fill-opacity="1"></use><g><use xlink:href="#a1P51sVsuQ" opacity="1" fill-opacity="0" stroke="#000000" stroke-width="NaN" stroke-opacity="0"></use></g></g><g><use xlink:href="#a3MPIXENet" opacity="1" fill="#93614a" fill-opacity="1"></use><g><use xlink:href="#a3MPIXENet" opacity="1" fill-opacity="0" stroke="#000000" stroke-width="NaN" stroke-opacity="0"></use></g></g><g><use xlink:href="#bER6HtjMB" opacity="1" fill="#a27662" fill-opacity="1"></use><g><use xlink:href="#bER6HtjMB" opacity="1" fill-opacity="0" stroke="#000000" stroke-width="NaN" stroke-opacity="0"></use></g></g><g><use xlink:href="#b40XyiUnv" opacity="1" fill="#844e35" fill-opacity="1"></use><g><use xlink:href="#b40XyiUnv" opacity="1" fill-opacity="0" stroke="#000000" stroke-width="NaN" stroke-opacity="0"></use></g></g><g><use xlink:href="#a8i39Oys1" opacity="1" fill="#000000" fill-opacity="0"></use><g><use xlink:href="#a8i39Oys1" opacity="1" fill-opacity="0" stroke="#652e15" stroke-width="1.5" stroke-opacity="1"></use></g></g><g><use xlink:href="#a2SNUoofdG" opacity="1" fill="url(#gradientfJ64wRukC)"></use><g><use xlink:href="#a2SNUoofdG" opacity="1" fill-opacity="0" stroke="#000000" stroke-width="1" stroke-opacity="0"></use></g></g><g><use xlink:href="#a1UDlIUb13" opacity="1" fill="#293347" fill-opacity="1"></use><g><use xlink:href="#a1UDlIUb13" opacity="1" fill-opacity="0" stroke="#000000" stroke-width="NaN" stroke-opacity="0"></use></g></g><g><use xlink:href="#aAmVvjxPV" opacity="1" fill="#3a4456" fill-opacity="1"></use><g><use xlink:href="#aAmVvjxPV" opacity="1" fill-opacity="0" stroke="#000000" stroke-width="NaN" stroke-opacity="0"></use></g></g><g><use xlink:href="#b2bfS12KqO" opacity="1" fill="#1b2438" fill-opacity="1"></use><g><use xlink:href="#b2bfS12KqO" opacity="1" fill-opacity="0" stroke="#000000" stroke-width="NaN" stroke-opacity="0"></use></g></g><g><use xlink:href="#c15QcllEwq" opacity="1" fill="#070d19" fill-opacity="1"></use><g><use xlink:href="#c15QcllEwq" opacity="1" fill-opacity="0" stroke="#000000" stroke-width="NaN" stroke-opacity="0"></use></g></g><g><use xlink:href="#a1Q8KRAqDC" opacity="1" fill="#93614a" fill-opacity="1"></use><g><use xlink:href="#a1Q8KRAqDC" opacity="1" fill-opacity="0" stroke="#652e15" stroke-width="1.5" stroke-opacity="1"></use></g></g><g><use xlink:href="#b13H4osesA" opacity="1" fill="#652e15" fill-opacity="1"></use><g><use xlink:href="#b13H4osesA" opacity="1" fill-opacity="0" stroke="#000000" stroke-width="NaN" stroke-opacity="0"></use></g></g><g><use xlink:href="#b2264jQd1M" opacity="1" fill="#93614a" fill-opacity="1"></use><g><use xlink:href="#b2264jQd1M" opacity="1" fill-opacity="0" stroke="#000000" stroke-width="NaN" stroke-opacity="0"></use></g></g><g><use xlink:href="#g3maRvp6CC" opacity="1" fill="#8b573f" fill-opacity="1"></use><g><use xlink:href="#g3maRvp6CC" opacity="1" fill-opacity="0" stroke="#000000" stroke-width="NaN" stroke-opacity="0"></use></g></g><g><use xlink:href="#a5DQN5UyiZ" opacity="1" fill="#000000" fill-opacity="0"></use><g><use xlink:href="#a5DQN5UyiZ" opacity="1" fill-opacity="0" stroke="#652e15" stroke-width="1.5" stroke-opacity="1"></use></g></g><g><use xlink:href="#bVL8Z31bc" opacity="1" fill="url(#gradientbIAPekQaj)"></use><g><use xlink:href="#bVL8Z31bc" opacity="1" fill-opacity="0" stroke="#000000" stroke-width="1" stroke-opacity="0"></use></g></g><g><use xlink:href="#b4uvjLTLs" opacity="1" fill="#652e15" fill-opacity="1"></use><g><use xlink:href="#b4uvjLTLs" opacity="1" fill-opacity="0" stroke="#000000" stroke-width="NaN" stroke-opacity="0"></use></g></g><g><use xlink:href="#bpJfRPYIW" opacity="1" fill="#ffffff" fill-opacity="1"></use><g><use xlink:href="#bpJfRPYIW" opacity="1" fill-opacity="0" stroke="#000000" stroke-width="NaN" stroke-opacity="0"></use></g></g><g><use xlink:href="#cVivTMwtu" opacity="1" fill="#000000" fill-opacity="0"></use><g><use xlink:href="#cVivTMwtu" opacity="1" fill-opacity="0" stroke="#652e15" stroke-width="0.75" stroke-opacity="1"></use></g></g><g><use xlink:href="#a4PCSV5ypb" opacity="1" fill="url(#gradienta222sLDDdZ)"></use><g><use xlink:href="#a4PCSV5ypb" opacity="1" fill-opacity="0" stroke="#000000" stroke-width="1" stroke-opacity="0"></use></g></g><g><use xlink:href="#f3eq69ijh4" opacity="1" fill="#4e60a3" fill-opacity="1"></use><g><use xlink:href="#f3eq69ijh4" opacity="1" fill-opacity="0" stroke="#000000" stroke-width="NaN" stroke-opacity="0"></use></g></g><g><use xlink:href="#m2PpoWFcuT" opacity="1" fill="url(#gradientb4Ic2HZrD0)"></use><g><use xlink:href="#m2PpoWFcuT" opacity="1" fill-opacity="0" stroke="#000000" stroke-width="1" stroke-opacity="0"></use></g></g><g><use xlink:href="#atUbJTjpN" opacity="1" fill="url(#gradientk5clEYC6zq)"></use><g><use xlink:href="#atUbJTjpN" opacity="1" fill-opacity="0" stroke="#000000" stroke-width="1" stroke-opacity="0"></use></g></g><g><use xlink:href="#iNRsdT1FB" opacity="1" fill="#4e60a3" fill-opacity="1"></use><g><use xlink:href="#iNRsdT1FB" opacity="1" fill-opacity="0" stroke="#000000" stroke-width="NaN" stroke-opacity="0"></use></g></g><g><use xlink:href="#cWvvs6Olx" opacity="1" fill="#000000" fill-opacity="1"></use><g><use xlink:href="#cWvvs6Olx" opacity="1" fill-opacity="0" stroke="#000000" stroke-width="NaN" stroke-opacity="0"></use></g></g><g><use xlink:href="#f1kgGqADav" opacity="1" fill="url(#gradienta8gYtuZvT)"></use><g><use xlink:href="#f1kgGqADav" opacity="1" fill-opacity="0" stroke="#000000" stroke-width="1" stroke-opacity="0"></use></g></g><g><use xlink:href="#bVqkzN0DA" opacity="1" fill="url(#gradientj8VrADVlE)"></use><g><use xlink:href="#bVqkzN0DA" opacity="1" fill-opacity="0" stroke="#000000" stroke-width="1" stroke-opacity="0"></use></g></g><g><use xlink:href="#b2xyfe4fJZ" opacity="1" fill="url(#gradientf4ebQMRW4)"></use><g><use xlink:href="#b2xyfe4fJZ" opacity="1" fill-opacity="0" stroke="#000000" stroke-width="1" stroke-opacity="0"></use></g></g><g><use xlink:href="#f54kPcue4N" opacity="1" fill="#93614a" fill-opacity="1"></use><g><use xlink:href="#f54kPcue4N" opacity="1" fill-opacity="0" stroke="#000000" stroke-width="NaN" stroke-opacity="0"></use></g></g><g><use xlink:href="#e5lTZtXvM" opacity="1" fill="url(#gradientd4qw2rM3mR)"></use><g><use xlink:href="#e5lTZtXvM" opacity="1" fill-opacity="0" stroke="#000000" stroke-width="1" stroke-opacity="0"></use></g></g><g><use xlink:href="#b3pwVj7eoz" opacity="1" fill="url(#gradienta2hXf7Jt9F)"></use><g><use xlink:href="#b3pwVj7eoz" opacity="1" fill-opacity="0" stroke="#000000" stroke-width="1" stroke-opacity="0"></use></g></g><g><use xlink:href="#c8sH5wdS9M" opacity="1" fill="#652e15" fill-opacity="1"></use><g><use xlink:href="#c8sH5wdS9M" opacity="1" fill-opacity="0" stroke="#000000" stroke-width="NaN" stroke-opacity="0"></use></g></g><g><use xlink:href="#e4jfPsks1Z" opacity="1" fill="#000000" fill-opacity="1"></use><g><use xlink:href="#e4jfPsks1Z" opacity="1" fill-opacity="0" stroke="#000000" stroke-width="NaN" stroke-opacity="0"></use></g></g><g><use xlink:href="#g1BR3P4j1" opacity="1" fill="url(#gradienta6zi7i1iJL)"></use><g><use xlink:href="#g1BR3P4j1" opacity="1" fill-opacity="0" stroke="#000000" stroke-width="1" stroke-opacity="0"></use></g></g><g><use xlink:href="#b15sOIWrn" opacity="1" fill="#4e60a3" fill-opacity="1"></use><g><use xlink:href="#b15sOIWrn" opacity="1" fill-opacity="0" stroke="#000000" stroke-width="NaN" stroke-opacity="0"></use></g></g><g><use xlink:href="#asghUC8cI" opacity="1" fill="url(#gradientbi2nFOBcA)"></use><g><use xlink:href="#asghUC8cI" opacity="1" fill-opacity="0" stroke="#000000" stroke-width="1" stroke-opacity="0"></use></g></g><g><use xlink:href="#a9CGYFoXP" opacity="1" fill="url(#gradientbW1TdLKXY)"></use><g><use xlink:href="#a9CGYFoXP" opacity="1" fill-opacity="0" stroke="#000000" stroke-width="1" stroke-opacity="0"></use></g></g><g><use xlink:href="#cyRYlt8MR" opacity="1" fill="#4e60a3" fill-opacity="1"></use><g><use xlink:href="#cyRYlt8MR" opacity="1" fill-opacity="0" stroke="#000000" stroke-width="NaN" stroke-opacity="0"></use></g></g><g><use xlink:href="#d9iGj6LoF" opacity="1" fill="#000000" fill-opacity="1"></use><g><use xlink:href="#d9iGj6LoF" opacity="1" fill-opacity="0" stroke="#000000" stroke-width="NaN" stroke-opacity="0"></use></g></g><g><use xlink:href="#e1T17RkWyK" opacity="1" fill="url(#gradientas1YU0lWn)"></use><g><use xlink:href="#e1T17RkWyK" opacity="1" fill-opacity="0" stroke="#000000" stroke-width="1" stroke-opacity="0"></use></g></g><g><use xlink:href="#n4LYXlQF9" opacity="1" fill="url(#gradientc18QpcL5Wm)"></use><g><use xlink:href="#n4LYXlQF9" opacity="1" fill-opacity="0" stroke="#000000" stroke-width="1" stroke-opacity="0"></use></g></g><g><use xlink:href="#a3vBE6llVP" opacity="1" fill="url(#gradientbcX9sfX7q)"></use><g><use xlink:href="#a3vBE6llVP" opacity="1" fill-opacity="0" stroke="#000000" stroke-width="1" stroke-opacity="0"></use></g></g><g><use xlink:href="#b2vRRrNaIy" opacity="1" fill="#93614a" fill-opacity="1"></use><g><use xlink:href="#b2vRRrNaIy" opacity="1" fill-opacity="0" stroke="#000000" stroke-width="NaN" stroke-opacity="0"></use></g></g><g><use xlink:href="#fK6TwdGCL" opacity="1" fill="url(#gradientcd7JDPHNG)"></use><g><use xlink:href="#fK6TwdGCL" opacity="1" fill-opacity="0" stroke="#000000" stroke-width="1" stroke-opacity="0"></use></g></g><g><use xlink:href="#geSvgmhdZ" opacity="1" fill="url(#gradientc2o0E5GD8J)"></use><g><use xlink:href="#geSvgmhdZ" opacity="1" fill-opacity="0" stroke="#000000" stroke-width="1" stroke-opacity="0"></use></g></g><g><use xlink:href="#d1z4jI2UQH" opacity="1" fill="#652e15" fill-opacity="1"></use><g><use xlink:href="#d1z4jI2UQH" opacity="1" fill-opacity="0" stroke="#000000" stroke-width="NaN" stroke-opacity="0"></use></g></g><g><use xlink:href="#cxKzy1o8A" opacity="1" fill="#000000" fill-opacity="1"></use><g><use xlink:href="#cxKzy1o8A" opacity="1" fill-opacity="0" stroke="#000000" stroke-width="NaN" stroke-opacity="0"></use></g></g><g><use xlink:href="#e37zSanEEa" opacity="1" fill="url(#gradientf6dsas6eB)"></use><g><use xlink:href="#e37zSanEEa" opacity="1" fill-opacity="0" stroke="#000000" stroke-width="1" stroke-opacity="0"></use></g></g><g><use xlink:href="#nhWORkQ9z" opacity="1" fill="url(#gradientclbeFCPFo)"></use><g><use xlink:href="#nhWORkQ9z" opacity="1" fill-opacity="0" stroke="#000000" stroke-width="1" stroke-opacity="0"></use></g></g><g><use xlink:href="#a5zJuKf5F" opacity="1" fill="#2a232b" fill-opacity="1"></use><g><use xlink:href="#a5zJuKf5F" opacity="1" fill-opacity="0" stroke="#000000" stroke-width="NaN" stroke-opacity="0"></use></g></g><g><use xlink:href="#a15niSewAJ" opacity="1" fill="#2a232b" fill-opacity="1"></use><g><use xlink:href="#a15niSewAJ" opacity="1" fill-opacity="0" stroke="#000000" stroke-width="NaN" stroke-opacity="0"></use></g></g><g><use xlink:href="#adV4Vkzf6" opacity="1" fill="#b28e7d" fill-opacity="1"></use><g><use xlink:href="#adV4Vkzf6" opacity="1" fill-opacity="0" stroke="#000000" stroke-width="NaN" stroke-opacity="0"></use></g></g><g><use xlink:href="#dKIiLW542" opacity="1" fill="#2a232b" fill-opacity="1"></use><g><use xlink:href="#dKIiLW542" opacity="1" fill-opacity="0" stroke="#000000" stroke-width="NaN" stroke-opacity="0"></use></g></g><g><use xlink:href="#c2zRdQXuDq" opacity="1" fill="#2a232b" fill-opacity="1"></use><g><use xlink:href="#c2zRdQXuDq" opacity="1" fill-opacity="0" stroke="#000000" stroke-width="NaN" stroke-opacity="0"></use></g></g><g><use xlink:href="#ahQPXhsgG" opacity="1" fill="#2a232b" fill-opacity="1"></use><g><use xlink:href="#ahQPXhsgG" opacity="1" fill-opacity="0" stroke="#000000" stroke-width="NaN" stroke-opacity="0"></use></g></g><g><use xlink:href="#c3kfmhxoB7" opacity="1" fill="#3a353a" fill-opacity="1"></use><g><use xlink:href="#c3kfmhxoB7" opacity="1" fill-opacity="0" stroke="#000000" stroke-width="NaN" stroke-opacity="0"></use></g></g><g><use xlink:href="#bBm3GATjt" opacity="1" fill="#000000" fill-opacity="1"></use><g><use xlink:href="#bBm3GATjt" opacity="1" fill-opacity="0" stroke="#000000" stroke-width="NaN" stroke-opacity="0"></use></g></g><g><use xlink:href="#b1N6DulxP9" opacity="1" fill="#000000" fill-opacity="1"></use><g><use xlink:href="#b1N6DulxP9" opacity="1" fill-opacity="0" stroke="#000000" stroke-width="NaN" stroke-opacity="0"></use></g></g><g><use xlink:href="#cxadqeNqi" opacity="1" fill="#93614a" fill-opacity="1"></use><g><use xlink:href="#cxadqeNqi" opacity="1" fill-opacity="0" stroke="#652e15" stroke-width="1.5" stroke-opacity="1"></use></g></g><g><use xlink:href="#bY3wi7h0f" opacity="1" fill="#652e15" fill-opacity="1"></use><g><use xlink:href="#bY3wi7h0f" opacity="1" fill-opacity="0" stroke="#000000" stroke-width="NaN" stroke-opacity="0"></use></g></g></g></g></svg>